<svg width="48" height="34" viewBox="0 0 48 34" fill="none" xmlns="http://www.w3.org/2000/svg">
<g clip-path="url(#clip0_1454_9336)">
<path opacity="0.9" fill-rule="evenodd" clip-rule="evenodd" d="M43.8817 15.5895C41.1292 20.3044 40.024 22.6955 38.5006 22.6928C36.5247 22.6888 35.8285 21.188 35.6731 10.9674C35.602 6.24134 33.957 3.50584 30.6016 4.77326C28.0851 5.72332 26.0848 10.9002 24.8669 13.5268C21.2143 21.4092 20.2188 17.2761 17.948 13.198C7.52291 -5.51988 -1.20048 1.87654 1.1875 1.6789C3.85073 1.458 10.4958 5.06263 15.424 20.5678C18.6246 28.5304 23.2384 28.894 27.4714 22.1272C29.0759 19.5641 32.8223 12.2543 32.77 16.4006C32.7178 20.5468 33.312 27.7625 37.4237 28.3176C40.5298 28.7358 42.2374 25.9214 44.6285 19.0035C45.2951 17.0734 45.7821 15.7561 47.29 13.6654C47.6223 13.2024 46.2921 11.4641 43.8817 15.5895Z" fill="#009FD9"/>
<path opacity="0.9" fill-rule="evenodd" clip-rule="evenodd" d="M43.8817 15.5895C41.1292 20.3044 40.024 22.6955 38.5006 22.6928C36.5247 22.6888 35.8285 21.188 35.6731 10.9674C35.602 6.24134 33.957 3.50584 30.6016 4.77326C28.0851 5.72332 26.0848 10.9002 24.8669 13.5268C21.2143 21.4092 20.2188 17.2761 17.948 13.198C7.52291 -5.51988 -1.20048 1.87654 1.1875 1.6789C3.85073 1.458 10.4958 5.06263 15.424 20.5678C18.6246 28.5304 23.2384 28.894 27.4714 22.1272C29.0759 19.5641 32.8223 12.2543 32.77 16.4006C32.7178 20.5468 33.312 27.7625 37.4237 28.3176C40.5298 28.7358 42.2374 25.9214 44.6285 19.0035C45.2951 17.0734 45.7821 15.7561 47.29 13.6654C47.6223 13.2024 46.2921 11.4641 43.8817 15.5895Z" fill="#009FD9"/>
<path d="M27.5736 30.8983C27.5736 31.3452 27.4385 31.7821 27.1855 32.1537C26.9326 32.5253 26.573 32.8149 26.1523 32.9859C25.7315 33.157 25.2686 33.2017 24.822 33.1145C24.3754 33.0273 23.9651 32.8121 23.6431 32.4961C23.3211 32.1801 23.1018 31.7775 23.013 31.3391C22.9242 30.9008 22.9697 30.4465 23.144 30.0336C23.3183 29.6207 23.6134 29.2678 23.992 29.0195C24.3706 28.7712 24.8158 28.6387 25.2712 28.6387C25.8818 28.6387 26.4674 28.8767 26.8992 29.3005C27.331 29.7243 27.5736 30.299 27.5736 30.8983Z" fill="#009FD9"/>
<path d="M35.3148 30.8983C35.3148 31.3452 35.1797 31.7821 34.9268 32.1537C34.6738 32.5253 34.3142 32.8149 33.8935 32.9859C33.4728 33.157 33.0098 33.2017 32.5632 33.1145C32.1166 33.0273 31.7063 32.8121 31.3843 32.4961C31.0623 32.1801 30.843 31.7775 30.7542 31.3391C30.6654 30.9008 30.711 30.4465 30.8852 30.0336C31.0595 29.6207 31.3546 29.2678 31.7332 29.0195C32.1118 28.7712 32.557 28.6387 33.0124 28.6387C33.623 28.6387 34.2086 28.8767 34.6404 29.3005C35.0722 29.7243 35.3148 30.299 35.3148 30.8983Z" fill="#009FD9"/>
</g>
<defs>
<clipPath id="clip0_1454_9336">
<rect width="46.5503" height="32.7576" fill="white" transform="translate(0.790039 0.400391)"/>
</clipPath>
</defs>
</svg>
