<svg width="361" height="801" viewBox="0 0 361 801" fill="none" xmlns="http://www.w3.org/2000/svg">
<g clip-path="url(#clip0_1344_7207)">
<rect width="360" height="800" transform="translate(0.0654297 0.849609)" fill="white"/>
<g filter="url(#filter0_f_1344_7207)">
<ellipse cx="279.483" cy="996.708" rx="283.178" ry="221.834" transform="rotate(-9.36319 279.483 996.708)" fill="url(#paint0_linear_1344_7207)"/>
</g>
<rect width="360" height="28" transform="translate(0.0654297 0.849609)" fill="white"/>
<path d="M29.0082 9.79137C29.5302 9.79492 30.038 9.88725 30.5316 10.0684C31.0288 10.2459 31.4763 10.5371 31.874 10.9419C32.2717 11.3432 32.5878 11.8812 32.8221 12.5559C33.0565 13.2306 33.1737 14.0652 33.1737 15.0595C33.1772 15.997 33.0778 16.835 32.8754 17.5737C32.6765 18.3088 32.3907 18.9302 32.0178 19.438C31.6449 19.9458 31.1957 20.3329 30.6701 20.5993C30.1446 20.8656 29.5533 20.9988 28.8964 20.9988C28.2074 20.9988 27.5966 20.8638 27.064 20.5939C26.5348 20.324 26.1069 19.9547 25.7802 19.486C25.4535 19.0172 25.2529 18.481 25.1783 17.8773H27.1226C27.222 18.3105 27.4244 18.655 27.7298 18.9107C28.0388 19.1628 28.4276 19.2889 28.8964 19.2889C29.6527 19.2889 30.2351 18.9604 30.6435 18.3034C31.0519 17.6465 31.2561 16.7338 31.2561 15.5655H31.1815C31.0075 15.878 30.782 16.1479 30.505 16.3752C30.228 16.5989 29.9138 16.7711 29.5622 16.8919C29.2142 17.0126 28.8449 17.073 28.4542 17.073C27.815 17.073 27.2397 16.9203 26.7284 16.6149C26.2206 16.3095 25.8175 15.8904 25.5192 15.3578C25.2245 14.8251 25.0753 14.2161 25.0718 13.5307C25.0718 12.8205 25.2351 12.1831 25.5618 11.6184C25.8921 11.0502 26.352 10.6028 26.9415 10.2761C27.5309 9.94584 28.2199 9.78427 29.0082 9.79137ZM29.0135 11.3894C28.63 11.3894 28.2838 11.4835 27.9748 11.6717C27.6694 11.8564 27.428 12.1085 27.2504 12.4281C27.0764 12.7441 26.9894 13.0975 26.9894 13.4881C26.9929 13.8752 27.0799 14.2267 27.2504 14.5428C27.4244 14.8588 27.6606 15.1092 27.9589 15.2939C28.2607 15.4785 28.6052 15.5708 28.9922 15.5708C29.2799 15.5708 29.548 15.5158 29.7966 15.4057C30.0451 15.2956 30.2618 15.1429 30.4464 14.9476C30.6346 14.7488 30.7802 14.5233 30.8832 14.2711C30.9897 14.019 31.0412 13.7527 31.0377 13.4721C31.0377 13.0993 30.9489 12.7548 30.7714 12.4387C30.5973 12.1227 30.3576 11.8688 30.0522 11.677C29.7504 11.4853 29.4042 11.3894 29.0135 11.3894ZM35.6566 19.5392C35.3335 19.5392 35.0565 19.4256 34.8257 19.1983C34.5949 18.9675 34.4812 18.6905 34.4848 18.3674C34.4812 18.0478 34.5949 17.7743 34.8257 17.5471C35.0565 17.3198 35.3335 17.2061 35.6566 17.2061C35.9691 17.2061 36.2408 17.3198 36.4716 17.5471C36.706 17.7743 36.825 18.0478 36.8285 18.3674C36.825 18.584 36.7682 18.7811 36.6581 18.9586C36.5515 19.1362 36.4095 19.2782 36.2319 19.3848C36.0579 19.4877 35.8662 19.5392 35.6566 19.5392ZM35.6566 14.1326C35.3335 14.1326 35.0565 14.019 34.8257 13.7917C34.5949 13.5609 34.4812 13.2839 34.4848 12.9608C34.4812 12.6412 34.5949 12.3677 34.8257 12.1404C35.0565 11.9096 35.3335 11.7942 35.6566 11.7942C35.9691 11.7942 36.2408 11.9096 36.4716 12.1404C36.706 12.3677 36.825 12.6412 36.8285 12.9608C36.825 13.1738 36.7682 13.3691 36.6581 13.5467C36.5515 13.7243 36.4095 13.8663 36.2319 13.9728C36.0579 14.0794 35.8662 14.1326 35.6566 14.1326ZM38.101 18.8255V17.2541L42.7299 9.94052H44.0403V12.1777H43.2413L40.1251 17.1156V17.2008H46.5864V18.8255H38.101ZM43.3052 20.8496V18.3461L43.3265 17.6429V9.94052H45.1908V20.8496H43.3052ZM52.079 9.94052V20.8496H50.1028V11.8635H50.0388L47.4873 13.4934V11.6824L50.1986 9.94052H52.079Z" fill="#1C1C3B" fill-opacity="0.87"/>
<path opacity="0.35" d="M324.237 11.8503C324.237 10.6536 325.207 9.68359 326.404 9.68359H343.071C344.267 9.68359 345.237 10.6536 345.237 11.8503V17.8503C345.237 19.0469 344.267 20.0169 343.071 20.0169H326.404C325.207 20.0169 324.237 19.0469 324.237 17.8503V11.8503Z" stroke="#1C1C3B" stroke-opacity="0.87"/>
<path opacity="0.4" d="M346.737 12.8496V16.8496C347.542 16.5108 348.065 15.7227 348.065 14.8496C348.065 13.9765 347.542 13.1884 346.737 12.8496Z" fill="#1C1C3B" fill-opacity="0.87"/>
<path d="M325.737 12.2836C325.737 11.6761 326.23 11.1836 326.837 11.1836H342.637C343.245 11.1836 343.737 11.6761 343.737 12.2836V17.4169C343.737 18.0244 343.245 18.5169 342.637 18.5169H326.837C326.23 18.5169 325.737 18.0244 325.737 17.4169V12.2836Z" fill="#1C1C3B" fill-opacity="0.87"/>
<path fill-rule="evenodd" clip-rule="evenodd" d="M311.068 11.459C313.284 11.4591 315.415 12.3105 317.021 13.8373C317.142 13.9552 317.335 13.9537 317.455 13.834L318.611 12.6673C318.671 12.6066 318.705 12.5243 318.704 12.4387C318.704 12.3532 318.669 12.2713 318.608 12.2113C314.393 8.17175 307.743 8.17175 303.528 12.2113C303.467 12.2713 303.432 12.3531 303.432 12.4387C303.431 12.5243 303.465 12.6065 303.525 12.6673L304.681 13.834C304.8 13.9539 304.994 13.9554 305.115 13.8373C306.721 12.3104 308.852 11.459 311.068 11.459ZM311.068 15.2546C312.286 15.2546 313.46 15.7071 314.362 16.5243C314.484 16.6403 314.677 16.6378 314.796 16.5186L315.95 15.352C316.011 15.2908 316.045 15.2078 316.044 15.1215C316.043 15.0352 316.008 14.9529 315.946 14.893C313.197 12.3366 308.941 12.3366 306.193 14.893C306.131 14.9529 306.096 15.0353 306.095 15.1216C306.094 15.2079 306.128 15.2909 306.189 15.352L307.343 16.5186C307.462 16.6378 307.655 16.6403 307.777 16.5243C308.678 15.7076 309.852 15.2551 311.068 15.2546ZM313.381 17.8085C313.383 17.895 313.349 17.9784 313.287 18.039L311.29 20.0546C311.231 20.1139 311.152 20.1472 311.068 20.1472C310.985 20.1472 310.905 20.1139 310.847 20.0546L308.849 18.039C308.787 17.9783 308.753 17.8949 308.755 17.8084C308.757 17.7219 308.794 17.64 308.859 17.582C310.134 16.5031 312.002 16.5031 313.278 17.582C313.342 17.64 313.379 17.7219 313.381 17.8085Z" fill="#1C1C3B" fill-opacity="0.87"/>
<path fill-rule="evenodd" clip-rule="evenodd" d="M297.404 9.51758H296.404C295.852 9.51758 295.404 9.96529 295.404 10.5176V19.1842C295.404 19.7365 295.852 20.1842 296.404 20.1842H297.404C297.957 20.1842 298.404 19.7365 298.404 19.1842V10.5176C298.404 9.96529 297.957 9.51758 297.404 9.51758ZM291.738 11.8509H292.738C293.29 11.8509 293.738 12.2986 293.738 12.8509V19.1842C293.738 19.7365 293.29 20.1842 292.738 20.1842H291.738C291.185 20.1842 290.738 19.7365 290.738 19.1842V12.8509C290.738 12.2986 291.185 11.8509 291.738 11.8509ZM288.071 14.1842H287.071C286.519 14.1842 286.071 14.632 286.071 15.1842V19.1842C286.071 19.7365 286.519 20.1842 287.071 20.1842H288.071C288.623 20.1842 289.071 19.7365 289.071 19.1842V15.1842C289.071 14.632 288.623 14.1842 288.071 14.1842ZM283.404 16.1842H282.404C281.852 16.1842 281.404 16.632 281.404 17.1842V19.1842C281.404 19.7365 281.852 20.1842 282.404 20.1842H283.404C283.957 20.1842 284.404 19.7365 284.404 19.1842V17.1842C284.404 16.632 283.957 16.1842 283.404 16.1842Z" fill="#1C1C3B" fill-opacity="0.87"/>
<line x1="115.565" y1="792.65" x2="245.565" y2="792.65" stroke="black" stroke-opacity="0.2" stroke-width="3" stroke-linecap="round"/>
<path d="M111.151 536.266H109.3V524.844H115.745V526.422H111.151V529.992H115.456V531.578H111.151V536.266ZM125.784 531.93C125.784 533.341 125.422 534.443 124.698 535.234C123.974 536.026 122.966 536.422 121.675 536.422C120.868 536.422 120.154 536.24 119.534 535.875C118.914 535.51 118.438 534.987 118.104 534.305C117.771 533.622 117.604 532.831 117.604 531.93C117.604 530.529 117.964 529.435 118.683 528.648C119.401 527.862 120.414 527.469 121.722 527.469C122.972 527.469 123.961 527.872 124.69 528.68C125.42 529.482 125.784 530.565 125.784 531.93ZM119.495 531.93C119.495 533.924 120.232 534.922 121.706 534.922C123.164 534.922 123.894 533.924 123.894 531.93C123.894 529.956 123.159 528.969 121.69 528.969C120.92 528.969 120.36 529.224 120.011 529.734C119.667 530.245 119.495 530.977 119.495 531.93ZM132.784 527.469C133.154 527.469 133.459 527.495 133.698 527.547L133.519 529.258C133.258 529.195 132.987 529.164 132.706 529.164C131.972 529.164 131.375 529.404 130.917 529.883C130.464 530.362 130.237 530.984 130.237 531.75V536.266H128.401V527.625H129.839L130.081 529.148H130.175C130.461 528.633 130.834 528.224 131.292 527.922C131.756 527.62 132.253 527.469 132.784 527.469ZM143.104 527.625V528.633L141.628 528.906C141.763 529.089 141.875 529.312 141.964 529.578C142.052 529.844 142.097 530.125 142.097 530.422C142.097 531.312 141.789 532.013 141.175 532.523C140.56 533.034 139.714 533.289 138.636 533.289C138.36 533.289 138.11 533.268 137.886 533.227C137.49 533.471 137.292 533.758 137.292 534.086C137.292 534.284 137.383 534.432 137.565 534.531C137.753 534.63 138.094 534.68 138.589 534.68H140.097C141.05 534.68 141.774 534.883 142.269 535.289C142.763 535.695 143.011 536.281 143.011 537.047C143.011 538.026 142.607 538.781 141.8 539.312C140.993 539.844 139.826 540.109 138.3 540.109C137.123 540.109 136.224 539.901 135.604 539.484C134.985 539.068 134.675 538.474 134.675 537.703C134.675 537.172 134.841 536.724 135.175 536.359C135.513 536 135.985 535.75 136.589 535.609C136.344 535.505 136.141 535.339 135.979 535.109C135.823 534.875 135.745 534.63 135.745 534.375C135.745 534.052 135.836 533.779 136.019 533.555C136.201 533.331 136.472 533.109 136.831 532.891C136.383 532.698 136.019 532.385 135.737 531.953C135.461 531.516 135.323 531.005 135.323 530.422C135.323 529.484 135.618 528.758 136.206 528.242C136.8 527.727 137.644 527.469 138.737 527.469C138.982 527.469 139.237 527.487 139.503 527.523C139.774 527.555 139.977 527.589 140.112 527.625H143.104ZM136.315 537.609C136.315 538.005 136.493 538.31 136.847 538.523C137.206 538.737 137.709 538.844 138.354 538.844C139.354 538.844 140.099 538.701 140.589 538.414C141.078 538.128 141.323 537.747 141.323 537.273C141.323 536.898 141.188 536.63 140.917 536.469C140.651 536.312 140.154 536.234 139.425 536.234H138.034C137.508 536.234 137.089 536.357 136.776 536.602C136.469 536.852 136.315 537.188 136.315 537.609ZM137.104 530.422C137.104 530.964 137.243 531.38 137.519 531.672C137.8 531.964 138.201 532.109 138.722 532.109C139.784 532.109 140.315 531.542 140.315 530.406C140.315 529.844 140.183 529.411 139.917 529.109C139.657 528.802 139.258 528.648 138.722 528.648C138.19 528.648 137.787 528.799 137.511 529.102C137.24 529.404 137.104 529.844 137.104 530.422ZM152.878 531.93C152.878 533.341 152.516 534.443 151.792 535.234C151.068 536.026 150.06 536.422 148.769 536.422C147.961 536.422 147.248 536.24 146.628 535.875C146.008 535.51 145.532 534.987 145.198 534.305C144.865 533.622 144.698 532.831 144.698 531.93C144.698 530.529 145.058 529.435 145.776 528.648C146.495 527.862 147.508 527.469 148.815 527.469C150.065 527.469 151.055 527.872 151.784 528.68C152.513 529.482 152.878 530.565 152.878 531.93ZM146.589 531.93C146.589 533.924 147.326 534.922 148.8 534.922C150.258 534.922 150.987 533.924 150.987 531.93C150.987 529.956 150.253 528.969 148.784 528.969C148.013 528.969 147.453 529.224 147.104 529.734C146.761 530.245 146.589 530.977 146.589 531.93ZM158.714 534.938C159.162 534.938 159.61 534.867 160.058 534.727V536.109C159.854 536.198 159.591 536.271 159.269 536.328C158.951 536.391 158.62 536.422 158.276 536.422C156.537 536.422 155.667 535.505 155.667 533.672V529.016H154.487V528.203L155.753 527.531L156.378 525.703H157.511V527.625H159.972V529.016H157.511V533.641C157.511 534.083 157.62 534.411 157.839 534.625C158.063 534.833 158.354 534.938 158.714 534.938ZM174.706 528.297C174.706 529.49 174.315 530.404 173.534 531.039C172.753 531.674 171.641 531.992 170.198 531.992H169.011V536.266H167.144V524.844H170.433C171.86 524.844 172.927 525.135 173.636 525.719C174.349 526.302 174.706 527.161 174.706 528.297ZM169.011 530.422H170.003C170.961 530.422 171.664 530.255 172.112 529.922C172.56 529.589 172.784 529.068 172.784 528.359C172.784 527.703 172.584 527.214 172.183 526.891C171.782 526.568 171.157 526.406 170.308 526.406H169.011V530.422ZM182.698 536.266L182.331 535.062H182.269C181.852 535.589 181.433 535.948 181.011 536.141C180.589 536.328 180.047 536.422 179.386 536.422C178.537 536.422 177.873 536.193 177.394 535.734C176.92 535.276 176.683 534.628 176.683 533.789C176.683 532.898 177.013 532.227 177.675 531.773C178.336 531.32 179.344 531.073 180.698 531.031L182.19 530.984V530.523C182.19 529.971 182.06 529.56 181.8 529.289C181.545 529.013 181.146 528.875 180.604 528.875C180.162 528.875 179.737 528.94 179.331 529.07C178.925 529.201 178.534 529.354 178.159 529.531L177.565 528.219C178.034 527.974 178.547 527.789 179.104 527.664C179.662 527.534 180.188 527.469 180.683 527.469C181.782 527.469 182.61 527.708 183.167 528.188C183.729 528.667 184.011 529.419 184.011 530.445V536.266H182.698ZM179.964 535.016C180.631 535.016 181.164 534.831 181.565 534.461C181.972 534.086 182.175 533.562 182.175 532.891V532.141L181.065 532.188C180.201 532.219 179.571 532.365 179.175 532.625C178.784 532.88 178.589 533.273 178.589 533.805C178.589 534.19 178.703 534.49 178.933 534.703C179.162 534.911 179.506 535.016 179.964 535.016ZM192.878 533.805C192.878 534.648 192.571 535.297 191.956 535.75C191.341 536.198 190.461 536.422 189.315 536.422C188.164 536.422 187.24 536.247 186.542 535.898V534.312C187.558 534.781 188.503 535.016 189.378 535.016C190.508 535.016 191.073 534.674 191.073 533.992C191.073 533.773 191.011 533.591 190.886 533.445C190.761 533.299 190.555 533.148 190.269 532.992C189.982 532.836 189.584 532.659 189.073 532.461C188.078 532.076 187.404 531.69 187.05 531.305C186.701 530.919 186.526 530.419 186.526 529.805C186.526 529.065 186.823 528.492 187.417 528.086C188.016 527.674 188.828 527.469 189.854 527.469C190.87 527.469 191.831 527.674 192.737 528.086L192.144 529.469C191.211 529.083 190.427 528.891 189.792 528.891C188.823 528.891 188.339 529.167 188.339 529.719C188.339 529.99 188.464 530.219 188.714 530.406C188.969 530.594 189.521 530.852 190.37 531.18C191.084 531.456 191.602 531.708 191.925 531.938C192.248 532.167 192.487 532.432 192.644 532.734C192.8 533.031 192.878 533.388 192.878 533.805ZM201.175 533.805C201.175 534.648 200.868 535.297 200.253 535.75C199.638 536.198 198.758 536.422 197.612 536.422C196.461 536.422 195.537 536.247 194.839 535.898V534.312C195.854 534.781 196.8 535.016 197.675 535.016C198.805 535.016 199.37 534.674 199.37 533.992C199.37 533.773 199.308 533.591 199.183 533.445C199.058 533.299 198.852 533.148 198.565 532.992C198.279 532.836 197.881 532.659 197.37 532.461C196.375 532.076 195.701 531.69 195.347 531.305C194.998 530.919 194.823 530.419 194.823 529.805C194.823 529.065 195.12 528.492 195.714 528.086C196.313 527.674 197.125 527.469 198.151 527.469C199.167 527.469 200.128 527.674 201.034 528.086L200.44 529.469C199.508 529.083 198.724 528.891 198.089 528.891C197.12 528.891 196.636 529.167 196.636 529.719C196.636 529.99 196.761 530.219 197.011 530.406C197.266 530.594 197.818 530.852 198.667 531.18C199.381 531.456 199.899 531.708 200.222 531.938C200.545 532.167 200.784 532.432 200.94 532.734C201.097 533.031 201.175 533.388 201.175 533.805ZM210.753 536.266L209.636 532.234C209.5 531.807 209.256 530.815 208.901 529.258H208.831C208.529 530.664 208.289 531.661 208.112 532.25L206.964 536.266H204.933L202.511 527.625H204.386L205.487 531.883C205.737 532.935 205.914 533.836 206.019 534.586H206.065C206.118 534.206 206.196 533.771 206.3 533.281C206.409 532.786 206.503 532.417 206.581 532.172L207.894 527.625H209.909L211.183 532.172C211.261 532.427 211.357 532.818 211.472 533.344C211.591 533.87 211.662 534.279 211.683 534.57H211.745C211.823 533.93 212.006 533.034 212.292 531.883L213.409 527.625H215.253L212.815 536.266H210.753ZM224.909 531.93C224.909 533.341 224.547 534.443 223.823 535.234C223.099 536.026 222.091 536.422 220.8 536.422C219.993 536.422 219.279 536.24 218.659 535.875C218.039 535.51 217.563 534.987 217.229 534.305C216.896 533.622 216.729 532.831 216.729 531.93C216.729 530.529 217.089 529.435 217.808 528.648C218.526 527.862 219.539 527.469 220.847 527.469C222.097 527.469 223.086 527.872 223.815 528.68C224.545 529.482 224.909 530.565 224.909 531.93ZM218.62 531.93C218.62 533.924 219.357 534.922 220.831 534.922C222.289 534.922 223.019 533.924 223.019 531.93C223.019 529.956 222.284 528.969 220.815 528.969C220.045 528.969 219.485 529.224 219.136 529.734C218.792 530.245 218.62 530.977 218.62 531.93ZM231.909 527.469C232.279 527.469 232.584 527.495 232.823 527.547L232.644 529.258C232.383 529.195 232.112 529.164 231.831 529.164C231.097 529.164 230.5 529.404 230.042 529.883C229.589 530.362 229.362 530.984 229.362 531.75V536.266H227.526V527.625H228.964L229.206 529.148H229.3C229.586 528.633 229.959 528.224 230.417 527.922C230.881 527.62 231.378 527.469 231.909 527.469ZM237.847 536.422C236.769 536.422 235.927 536.031 235.323 535.25C234.719 534.469 234.417 533.372 234.417 531.961C234.417 530.544 234.722 529.443 235.331 528.656C235.946 527.865 236.795 527.469 237.878 527.469C239.013 527.469 239.878 527.888 240.472 528.727H240.565C240.477 528.107 240.433 527.617 240.433 527.258V524.109H242.276V536.266H240.839L240.519 535.133H240.433C239.844 535.992 238.982 536.422 237.847 536.422ZM238.339 534.938C239.094 534.938 239.644 534.727 239.987 534.305C240.331 533.878 240.508 533.188 240.519 532.234V531.977C240.519 530.888 240.341 530.115 239.987 529.656C239.633 529.198 239.078 528.969 238.323 528.969C237.677 528.969 237.18 529.232 236.831 529.758C236.482 530.279 236.308 531.023 236.308 531.992C236.308 532.951 236.477 533.682 236.815 534.188C237.154 534.688 237.662 534.938 238.339 534.938ZM246.3 532.797V532.297C246.3 531.724 246.404 531.247 246.612 530.867C246.821 530.487 247.185 530.094 247.706 529.688C248.326 529.198 248.724 528.818 248.901 528.547C249.084 528.276 249.175 527.953 249.175 527.578C249.175 527.141 249.029 526.805 248.737 526.57C248.446 526.336 248.026 526.219 247.479 526.219C246.985 526.219 246.526 526.289 246.104 526.43C245.683 526.57 245.271 526.74 244.87 526.938L244.214 525.562C245.271 524.974 246.404 524.68 247.612 524.68C248.633 524.68 249.443 524.93 250.042 525.43C250.641 525.93 250.94 526.62 250.94 527.5C250.94 527.891 250.883 528.24 250.769 528.547C250.654 528.849 250.479 529.138 250.245 529.414C250.016 529.69 249.618 530.049 249.05 530.492C248.565 530.872 248.24 531.188 248.073 531.438C247.912 531.688 247.831 532.023 247.831 532.445V532.797H246.3ZM245.979 535.289C245.979 534.503 246.362 534.109 247.128 534.109C247.503 534.109 247.789 534.214 247.987 534.422C248.185 534.625 248.284 534.914 248.284 535.289C248.284 535.659 248.183 535.953 247.979 536.172C247.782 536.385 247.498 536.492 247.128 536.492C246.758 536.492 246.474 536.388 246.276 536.18C246.078 535.966 245.979 535.669 245.979 535.289Z" fill="#009FD9"/>
<path d="M64.0305 198.545V185.695H66.7551V196.295H71.967V198.545H64.0305ZM76.283 193.614C76.283 194.587 76.4412 195.322 76.7576 195.82C77.0799 196.318 77.6014 196.567 78.3221 196.567C79.0369 196.567 79.5496 196.321 79.8602 195.829C80.1766 195.331 80.3348 194.593 80.3348 193.614C80.3348 192.642 80.1766 191.912 79.8602 191.426C79.5438 190.939 79.0252 190.696 78.3045 190.696C77.5897 190.696 77.074 190.939 76.7576 191.426C76.4412 191.906 76.283 192.636 76.283 193.614ZM83.077 193.614C83.077 195.214 82.6551 196.465 81.8113 197.367C80.9676 198.27 79.7928 198.721 78.2869 198.721C77.3436 198.721 76.5115 198.516 75.7908 198.105C75.0701 197.689 74.5164 197.095 74.1297 196.321C73.743 195.548 73.5496 194.646 73.5496 193.614C73.5496 192.009 73.9686 190.761 74.8064 189.87C75.6443 188.979 76.8221 188.534 78.3397 188.534C79.283 188.534 80.115 188.739 80.8357 189.149C81.5564 189.56 82.1102 190.148 82.4969 190.916C82.8836 191.684 83.077 192.583 83.077 193.614ZM93.9936 188.719V190.081L92.4555 190.477C92.7367 190.916 92.8773 191.408 92.8773 191.953C92.8773 193.008 92.5082 193.831 91.7699 194.423C91.0375 195.009 90.018 195.302 88.7113 195.302L88.2279 195.275L87.8324 195.231C87.557 195.442 87.4193 195.677 87.4193 195.935C87.4193 196.321 87.9115 196.515 88.8959 196.515H90.5658C91.6439 196.515 92.4643 196.746 93.0268 197.209C93.5951 197.672 93.8793 198.352 93.8793 199.248C93.8793 200.396 93.3988 201.287 92.4379 201.92C91.4828 202.553 90.1088 202.869 88.3158 202.869C86.9447 202.869 85.8959 202.629 85.1693 202.148C84.4486 201.674 84.0883 201.006 84.0883 200.145C84.0883 199.553 84.2729 199.058 84.642 198.659C85.0111 198.261 85.5531 197.977 86.268 197.807C85.9926 197.689 85.7523 197.499 85.5473 197.235C85.3422 196.966 85.2397 196.682 85.2397 196.383C85.2397 196.008 85.348 195.697 85.5648 195.451C85.7816 195.199 86.0951 194.953 86.5053 194.713C85.9897 194.49 85.5795 194.133 85.2748 193.641C84.976 193.148 84.8266 192.568 84.8266 191.9C84.8266 190.828 85.1752 189.999 85.8725 189.413C86.5697 188.827 87.5658 188.534 88.8607 188.534C89.1361 188.534 89.4613 188.561 89.8363 188.613C90.2172 188.66 90.4604 188.695 90.5658 188.719H93.9936ZM86.4086 199.934C86.4086 200.303 86.5844 200.593 86.9359 200.804C87.2934 201.015 87.7914 201.12 88.4301 201.12C89.391 201.12 90.1439 200.988 90.6889 200.725C91.2338 200.461 91.5063 200.101 91.5063 199.644C91.5063 199.274 91.3451 199.02 91.0229 198.879C90.7006 198.738 90.2025 198.668 89.5287 198.668H88.14C87.6479 198.668 87.2348 198.782 86.9008 199.011C86.5727 199.245 86.4086 199.553 86.4086 199.934ZM87.3842 191.936C87.3842 192.469 87.5043 192.891 87.7445 193.201C87.9906 193.512 88.3627 193.667 88.8607 193.667C89.3647 193.667 89.7338 193.512 89.9682 193.201C90.2025 192.891 90.3197 192.469 90.3197 191.936C90.3197 190.752 89.8334 190.16 88.8607 190.16C87.8764 190.16 87.3842 190.752 87.3842 191.936ZM100.481 186.179C100.481 185.306 100.967 184.869 101.94 184.869C102.913 184.869 103.399 185.306 103.399 186.179C103.399 186.595 103.276 186.92 103.03 187.154C102.79 187.383 102.426 187.497 101.94 187.497C100.967 187.497 100.481 187.058 100.481 186.179ZM103.276 198.545H100.595V188.719H103.276V198.545ZM115.318 198.545H112.637V192.806C112.637 192.097 112.511 191.566 112.259 191.215C112.007 190.857 111.606 190.679 111.055 190.679C110.305 190.679 109.763 190.931 109.429 191.435C109.095 191.933 108.928 192.762 108.928 193.922V198.545H106.247V188.719H108.295L108.655 189.976H108.805C109.104 189.501 109.514 189.144 110.035 188.903C110.563 188.657 111.16 188.534 111.828 188.534C112.971 188.534 113.838 188.845 114.43 189.466C115.022 190.081 115.318 190.972 115.318 192.138V198.545ZM127.193 196.585C127.662 196.585 128.224 196.482 128.88 196.277V198.272C128.212 198.571 127.392 198.721 126.419 198.721C125.347 198.721 124.565 198.451 124.073 197.912C123.586 197.367 123.343 196.553 123.343 195.469V190.731H122.06V189.598L123.537 188.701L124.31 186.627H126.024V188.719H128.775V190.731H126.024V195.469C126.024 195.85 126.129 196.131 126.34 196.312C126.557 196.494 126.841 196.585 127.193 196.585ZM133.161 193.614C133.161 194.587 133.319 195.322 133.636 195.82C133.958 196.318 134.479 196.567 135.2 196.567C135.915 196.567 136.428 196.321 136.738 195.829C137.055 195.331 137.213 194.593 137.213 193.614C137.213 192.642 137.055 191.912 136.738 191.426C136.422 190.939 135.903 190.696 135.183 190.696C134.468 190.696 133.952 190.939 133.636 191.426C133.319 191.906 133.161 192.636 133.161 193.614ZM139.955 193.614C139.955 195.214 139.533 196.465 138.689 197.367C137.846 198.27 136.671 198.721 135.165 198.721C134.222 198.721 133.39 198.516 132.669 198.105C131.948 197.689 131.395 197.095 131.008 196.321C130.621 195.548 130.428 194.646 130.428 193.614C130.428 192.009 130.847 190.761 131.685 189.87C132.522 188.979 133.7 188.534 135.218 188.534C136.161 188.534 136.993 188.739 137.714 189.149C138.435 189.56 138.988 190.148 139.375 190.916C139.762 191.684 139.955 192.583 139.955 193.614ZM159.872 198.545H156.77L155.029 191.795C154.965 191.555 154.854 191.06 154.696 190.31C154.543 189.554 154.455 189.047 154.432 188.789C154.397 189.105 154.309 189.615 154.168 190.318C154.028 191.016 153.919 191.514 153.843 191.812L152.112 198.545H149.018L145.739 185.695H148.42L150.064 192.709C150.351 194.004 150.559 195.126 150.688 196.075C150.723 195.741 150.802 195.226 150.925 194.528C151.054 193.825 151.174 193.28 151.285 192.894L153.157 185.695H155.733L157.605 192.894C157.687 193.216 157.789 193.708 157.912 194.37C158.035 195.032 158.129 195.601 158.194 196.075C158.252 195.618 158.346 195.05 158.475 194.37C158.604 193.685 158.721 193.131 158.826 192.709L160.461 185.695H163.142L159.872 198.545ZM168.767 190.441C168.199 190.441 167.754 190.623 167.431 190.986C167.109 191.344 166.925 191.854 166.878 192.516H170.639C170.628 191.854 170.455 191.344 170.121 190.986C169.787 190.623 169.336 190.441 168.767 190.441ZM169.145 198.721C167.563 198.721 166.327 198.284 165.436 197.411C164.546 196.538 164.1 195.302 164.1 193.702C164.1 192.056 164.511 190.784 165.331 189.888C166.157 188.985 167.297 188.534 168.75 188.534C170.138 188.534 171.22 188.93 171.993 189.721C172.766 190.512 173.153 191.604 173.153 192.999V194.3H166.816C166.846 195.062 167.071 195.656 167.493 196.084C167.915 196.512 168.507 196.726 169.268 196.726C169.86 196.726 170.42 196.664 170.947 196.541C171.474 196.418 172.025 196.222 172.599 195.952V198.026C172.131 198.261 171.63 198.434 171.096 198.545C170.563 198.662 169.913 198.721 169.145 198.721ZM180.95 188.534C182.11 188.534 183.018 188.988 183.674 189.896C184.33 190.799 184.659 192.038 184.659 193.614C184.659 195.237 184.319 196.494 183.639 197.385C182.965 198.275 182.045 198.721 180.879 198.721C179.725 198.721 178.82 198.302 178.163 197.464H177.979L177.531 198.545H175.483V184.869H178.163V188.051C178.163 188.455 178.128 189.103 178.058 189.993H178.163C178.79 189.021 179.719 188.534 180.95 188.534ZM180.088 190.679C179.426 190.679 178.943 190.884 178.638 191.294C178.333 191.698 178.175 192.369 178.163 193.307V193.597C178.163 194.651 178.319 195.407 178.629 195.864C178.946 196.321 179.444 196.55 180.123 196.55C180.674 196.55 181.111 196.298 181.433 195.794C181.761 195.284 181.925 194.546 181.925 193.579C181.925 192.612 181.761 191.889 181.433 191.408C181.105 190.922 180.657 190.679 180.088 190.679ZM192.692 187.778C191.667 187.778 190.873 188.165 190.311 188.938C189.748 189.706 189.467 190.778 189.467 192.155C189.467 195.021 190.542 196.453 192.692 196.453C193.595 196.453 194.688 196.228 195.971 195.776V198.062C194.916 198.501 193.738 198.721 192.438 198.721C190.568 198.721 189.139 198.155 188.148 197.024C187.158 195.888 186.663 194.259 186.663 192.138C186.663 190.802 186.906 189.633 187.393 188.631C187.879 187.623 188.576 186.853 189.484 186.319C190.398 185.78 191.468 185.511 192.692 185.511C193.94 185.511 195.194 185.812 196.454 186.416L195.575 188.631C195.095 188.402 194.611 188.203 194.125 188.033C193.639 187.863 193.161 187.778 192.692 187.778ZM200.788 193.614C200.788 194.587 200.946 195.322 201.262 195.82C201.585 196.318 202.106 196.567 202.827 196.567C203.542 196.567 204.054 196.321 204.365 195.829C204.681 195.331 204.839 194.593 204.839 193.614C204.839 192.642 204.681 191.912 204.365 191.426C204.048 190.939 203.53 190.696 202.809 190.696C202.094 190.696 201.579 190.939 201.262 191.426C200.946 191.906 200.788 192.636 200.788 193.614ZM207.582 193.614C207.582 195.214 207.16 196.465 206.316 197.367C205.472 198.27 204.297 198.721 202.792 198.721C201.848 198.721 201.016 198.516 200.296 198.105C199.575 197.689 199.021 197.095 198.634 196.321C198.248 195.548 198.054 194.646 198.054 193.614C198.054 192.009 198.473 190.761 199.311 189.87C200.149 188.979 201.327 188.534 202.844 188.534C203.788 188.534 204.62 188.739 205.34 189.149C206.061 189.56 206.615 190.148 207.002 190.916C207.388 191.684 207.582 192.583 207.582 193.614ZM218.744 198.545H216.064V192.806C216.064 192.097 215.944 191.566 215.703 191.215C215.469 190.857 215.097 190.679 214.587 190.679C213.902 190.679 213.404 190.931 213.093 191.435C212.782 191.938 212.627 192.768 212.627 193.922V198.545H209.946V188.719H211.994L212.355 189.976H212.504C212.768 189.524 213.149 189.173 213.647 188.921C214.145 188.663 214.716 188.534 215.361 188.534C216.831 188.534 217.827 189.015 218.349 189.976H218.586C218.85 189.519 219.237 189.164 219.746 188.912C220.262 188.66 220.842 188.534 221.487 188.534C222.6 188.534 223.441 188.821 224.009 189.396C224.583 189.964 224.87 190.878 224.87 192.138V198.545H222.181V192.806C222.181 192.097 222.061 191.566 221.821 191.215C221.586 190.857 221.214 190.679 220.704 190.679C220.048 190.679 219.556 190.913 219.228 191.382C218.905 191.851 218.744 192.595 218.744 193.614V198.545ZM236.578 198.545H233.897V192.806C233.897 192.097 233.777 191.566 233.537 191.215C233.303 190.857 232.93 190.679 232.421 190.679C231.735 190.679 231.237 190.931 230.927 191.435C230.616 191.938 230.461 192.768 230.461 193.922V198.545H227.78V188.719H229.828L230.188 189.976H230.338C230.601 189.524 230.982 189.173 231.48 188.921C231.978 188.663 232.55 188.534 233.194 188.534C234.665 188.534 235.661 189.015 236.182 189.976H236.42C236.683 189.519 237.07 189.164 237.58 188.912C238.096 188.66 238.676 188.534 239.32 188.534C240.433 188.534 241.274 188.821 241.843 189.396C242.417 189.964 242.704 190.878 242.704 192.138V198.545H240.014V192.806C240.014 192.097 239.894 191.566 239.654 191.215C239.42 190.857 239.048 190.679 238.538 190.679C237.882 190.679 237.389 190.913 237.061 191.382C236.739 191.851 236.578 192.595 236.578 193.614V198.545ZM251.854 198.545L251.335 197.209H251.265C250.814 197.777 250.348 198.173 249.868 198.396C249.393 198.612 248.772 198.721 248.004 198.721C247.061 198.721 246.317 198.451 245.772 197.912C245.233 197.373 244.963 196.605 244.963 195.609C244.963 194.566 245.327 193.799 246.053 193.307C246.786 192.809 247.887 192.533 249.358 192.48L251.063 192.428V191.997C251.063 191.001 250.553 190.503 249.534 190.503C248.748 190.503 247.826 190.74 246.765 191.215L245.877 189.404C247.008 188.812 248.262 188.517 249.639 188.517C250.957 188.517 251.968 188.804 252.671 189.378C253.374 189.952 253.726 190.825 253.726 191.997V198.545H251.854ZM251.063 193.992L250.026 194.027C249.246 194.051 248.666 194.191 248.286 194.449C247.905 194.707 247.714 195.1 247.714 195.627C247.714 196.383 248.148 196.761 249.015 196.761C249.636 196.761 250.131 196.582 250.5 196.225C250.875 195.867 251.063 195.393 251.063 194.801V193.992ZM265.715 198.545H263.034V192.806C263.034 192.097 262.908 191.566 262.656 191.215C262.404 190.857 262.003 190.679 261.452 190.679C260.702 190.679 260.16 190.931 259.826 191.435C259.492 191.933 259.325 192.762 259.325 193.922V198.545H256.645V188.719H258.692L259.053 189.976H259.202C259.501 189.501 259.911 189.144 260.433 188.903C260.96 188.657 261.558 188.534 262.226 188.534C263.368 188.534 264.235 188.845 264.827 189.466C265.419 190.081 265.715 190.972 265.715 192.138V198.545ZM271.736 198.721C270.582 198.721 269.673 198.272 269.011 197.376C268.355 196.479 268.027 195.237 268.027 193.649C268.027 192.038 268.361 190.784 269.029 189.888C269.703 188.985 270.629 188.534 271.806 188.534C273.043 188.534 273.986 189.015 274.636 189.976H274.724C274.589 189.243 274.522 188.59 274.522 188.016V184.869H277.212V198.545H275.155L274.636 197.271H274.522C273.913 198.237 272.984 198.721 271.736 198.721ZM272.676 196.585C273.362 196.585 273.863 196.386 274.179 195.987C274.502 195.589 274.677 194.912 274.707 193.957V193.667C274.707 192.612 274.543 191.856 274.214 191.399C273.892 190.942 273.365 190.714 272.632 190.714C272.035 190.714 271.569 190.969 271.235 191.479C270.907 191.982 270.743 192.718 270.743 193.685C270.743 194.651 270.91 195.378 271.244 195.864C271.578 196.345 272.055 196.585 272.676 196.585ZM284.235 190.441C283.666 190.441 283.221 190.623 282.899 190.986C282.576 191.344 282.392 191.854 282.345 192.516H286.107C286.095 191.854 285.922 191.344 285.588 190.986C285.254 190.623 284.803 190.441 284.235 190.441ZM284.613 198.721C283.03 198.721 281.794 198.284 280.904 197.411C280.013 196.538 279.568 195.302 279.568 193.702C279.568 192.056 279.978 190.784 280.798 189.888C281.624 188.985 282.764 188.534 284.217 188.534C285.606 188.534 286.687 188.93 287.46 189.721C288.234 190.512 288.62 191.604 288.62 192.999V194.3H282.283C282.313 195.062 282.538 195.656 282.96 196.084C283.382 196.512 283.974 196.726 284.736 196.726C285.327 196.726 285.887 196.664 286.414 196.541C286.942 196.418 287.492 196.222 288.067 195.952V198.026C287.598 198.261 287.097 198.434 286.564 198.545C286.03 198.662 285.38 198.721 284.613 198.721ZM296.434 188.534C296.798 188.534 297.099 188.561 297.34 188.613L297.137 191.127C296.921 191.068 296.657 191.039 296.346 191.039C295.491 191.039 294.823 191.259 294.343 191.698C293.868 192.138 293.631 192.753 293.631 193.544V198.545H290.95V188.719H292.98L293.376 190.371H293.508C293.812 189.82 294.222 189.378 294.738 189.044C295.26 188.704 295.825 188.534 296.434 188.534Z" fill="#1C1C3B" fill-opacity="0.87"/>
<path d="M57.8857 231.545L56.4639 227.912H51.8857L50.4795 231.545H49.1357L53.6514 220.076H54.7686L59.2607 231.545H57.8857ZM56.0498 226.717L54.7217 223.178C54.5498 222.73 54.3727 222.18 54.1904 221.529C54.0758 222.029 53.9118 222.579 53.6982 223.178L52.3545 226.717H56.0498ZM69.2139 231.701C67.9743 231.701 67.0133 231.321 66.3311 230.561C65.654 229.795 65.3154 228.714 65.3154 227.318C65.3154 225.886 65.6592 224.779 66.3467 223.998C67.0394 223.217 68.0238 222.826 69.2998 222.826C69.7113 222.826 70.1227 222.87 70.5342 222.959C70.9456 223.048 71.2686 223.152 71.5029 223.271L71.1045 224.373C70.818 224.258 70.5055 224.165 70.167 224.092C69.8285 224.014 69.529 223.975 69.2686 223.975C67.529 223.975 66.6592 225.084 66.6592 227.303C66.6592 228.355 66.8701 229.162 67.292 229.725C67.7191 230.287 68.3493 230.568 69.1826 230.568C69.8962 230.568 70.6279 230.415 71.3779 230.107V231.256C70.805 231.553 70.0837 231.701 69.2139 231.701ZM81.3076 227.256C81.3076 228.652 80.9561 229.743 80.2529 230.529C79.5498 231.311 78.5785 231.701 77.3389 231.701C76.5732 231.701 75.8936 231.521 75.2998 231.162C74.7061 230.803 74.2477 230.287 73.9248 229.615C73.6019 228.943 73.4404 228.157 73.4404 227.256C73.4404 225.86 73.7894 224.774 74.4873 223.998C75.1852 223.217 76.154 222.826 77.3936 222.826C78.5915 222.826 79.542 223.225 80.2451 224.021C80.9535 224.818 81.3076 225.896 81.3076 227.256ZM74.7842 227.256C74.7842 228.35 75.0029 229.183 75.4404 229.756C75.8779 230.329 76.5212 230.615 77.3701 230.615C78.2191 230.615 78.8623 230.331 79.2998 229.764C79.7425 229.191 79.9639 228.355 79.9639 227.256C79.9639 226.167 79.7425 225.342 79.2998 224.779C78.8623 224.212 78.2139 223.928 77.3545 223.928C76.5055 223.928 75.8649 224.206 75.4326 224.764C75.0003 225.321 74.7842 226.152 74.7842 227.256ZM95.0029 231.545V225.975C95.0029 225.292 94.8571 224.782 94.5654 224.443C94.2738 224.1 93.8206 223.928 93.2061 223.928C92.3988 223.928 91.8024 224.16 91.417 224.623C91.0316 225.087 90.8389 225.8 90.8389 226.764V231.545H89.542V225.975C89.542 225.292 89.3962 224.782 89.1045 224.443C88.8128 224.1 88.3571 223.928 87.7373 223.928C86.9248 223.928 86.3285 224.173 85.9482 224.662C85.5732 225.146 85.3857 225.943 85.3857 227.053V231.545H84.0889V222.982H85.1436L85.3545 224.154H85.417C85.6618 223.738 86.0055 223.412 86.4482 223.178C86.8962 222.943 87.3962 222.826 87.9482 222.826C89.2868 222.826 90.1618 223.311 90.5732 224.279H90.6357C90.891 223.831 91.2607 223.477 91.7451 223.217C92.2295 222.956 92.7816 222.826 93.4014 222.826C94.3701 222.826 95.0941 223.076 95.5732 223.576C96.0576 224.071 96.2998 224.865 96.2998 225.959V231.545H95.0029ZM103.464 231.701C102.907 231.701 102.396 231.6 101.933 231.396C101.474 231.188 101.089 230.87 100.776 230.443H100.683C100.745 230.943 100.776 231.417 100.776 231.865V235.389H99.4795V222.982H100.534L100.714 224.154H100.776C101.11 223.686 101.498 223.347 101.94 223.139C102.383 222.93 102.891 222.826 103.464 222.826C104.599 222.826 105.474 223.214 106.089 223.99C106.709 224.766 107.019 225.855 107.019 227.256C107.019 228.662 106.703 229.756 106.073 230.537C105.448 231.313 104.578 231.701 103.464 231.701ZM103.276 223.928C102.401 223.928 101.769 224.17 101.378 224.654C100.987 225.139 100.787 225.91 100.776 226.967V227.256C100.776 228.459 100.977 229.321 101.378 229.842C101.779 230.357 102.422 230.615 103.308 230.615C104.047 230.615 104.625 230.316 105.042 229.717C105.464 229.118 105.675 228.292 105.675 227.24C105.675 226.173 105.464 225.355 105.042 224.787C104.625 224.214 104.037 223.928 103.276 223.928ZM111.089 231.545H109.792V219.389H111.089V231.545ZM117.956 231.701C116.69 231.701 115.69 231.316 114.956 230.545C114.227 229.774 113.862 228.704 113.862 227.334C113.862 225.954 114.201 224.857 114.878 224.045C115.56 223.232 116.474 222.826 117.62 222.826C118.693 222.826 119.542 223.18 120.167 223.889C120.792 224.592 121.104 225.521 121.104 226.678V227.498H115.206C115.232 228.503 115.485 229.266 115.964 229.787C116.448 230.308 117.128 230.568 118.003 230.568C118.925 230.568 119.836 230.376 120.737 229.99V231.146C120.279 231.344 119.844 231.485 119.433 231.568C119.026 231.657 118.534 231.701 117.956 231.701ZM117.604 223.912C116.917 223.912 116.368 224.136 115.956 224.584C115.55 225.032 115.31 225.652 115.237 226.443H119.714C119.714 225.626 119.532 225.001 119.167 224.568C118.802 224.131 118.282 223.912 117.604 223.912ZM126.589 230.631C126.818 230.631 127.039 230.615 127.253 230.584C127.466 230.548 127.636 230.511 127.761 230.475V231.467C127.62 231.535 127.412 231.589 127.136 231.631C126.865 231.678 126.62 231.701 126.401 231.701C124.745 231.701 123.917 230.829 123.917 229.084V223.99H122.69V223.365L123.917 222.826L124.464 220.998H125.214V222.982H127.698V223.99H125.214V229.029C125.214 229.545 125.336 229.941 125.581 230.217C125.826 230.493 126.162 230.631 126.589 230.631ZM133.597 231.701C132.331 231.701 131.331 231.316 130.597 230.545C129.868 229.774 129.503 228.704 129.503 227.334C129.503 225.954 129.841 224.857 130.519 224.045C131.201 223.232 132.115 222.826 133.261 222.826C134.334 222.826 135.183 223.18 135.808 223.889C136.433 224.592 136.745 225.521 136.745 226.678V227.498H130.847C130.873 228.503 131.125 229.266 131.604 229.787C132.089 230.308 132.769 230.568 133.644 230.568C134.565 230.568 135.477 230.376 136.378 229.99V231.146C135.92 231.344 135.485 231.485 135.073 231.568C134.667 231.657 134.175 231.701 133.597 231.701ZM133.245 223.912C132.558 223.912 132.008 224.136 131.597 224.584C131.19 225.032 130.951 225.652 130.878 226.443H135.354C135.354 225.626 135.172 225.001 134.808 224.568C134.443 224.131 133.922 223.912 133.245 223.912ZM147.737 231.701C146.472 231.701 145.472 231.316 144.737 230.545C144.008 229.774 143.644 228.704 143.644 227.334C143.644 225.954 143.982 224.857 144.659 224.045C145.341 223.232 146.256 222.826 147.401 222.826C148.474 222.826 149.323 223.18 149.948 223.889C150.573 224.592 150.886 225.521 150.886 226.678V227.498H144.987C145.013 228.503 145.266 229.266 145.745 229.787C146.229 230.308 146.909 230.568 147.784 230.568C148.706 230.568 149.618 230.376 150.519 229.99V231.146C150.06 231.344 149.625 231.485 149.214 231.568C148.808 231.657 148.315 231.701 147.737 231.701ZM147.386 223.912C146.698 223.912 146.149 224.136 145.737 224.584C145.331 225.032 145.091 225.652 145.019 226.443H149.495C149.495 225.626 149.313 225.001 148.948 224.568C148.584 224.131 148.063 223.912 147.386 223.912ZM158.69 221.146C157.435 221.146 156.443 221.566 155.714 222.404C154.99 223.238 154.628 224.381 154.628 225.834C154.628 227.329 154.977 228.485 155.675 229.303C156.378 230.115 157.378 230.521 158.675 230.521C159.472 230.521 160.381 230.378 161.401 230.092V231.256C160.61 231.553 159.633 231.701 158.472 231.701C156.789 231.701 155.49 231.191 154.573 230.17C153.662 229.149 153.206 227.699 153.206 225.818C153.206 224.641 153.425 223.61 153.862 222.725C154.305 221.839 154.94 221.157 155.769 220.678C156.602 220.199 157.581 219.959 158.706 219.959C159.904 219.959 160.951 220.178 161.847 220.615L161.284 221.756C160.42 221.35 159.555 221.146 158.69 221.146ZM171.589 227.256C171.589 228.652 171.237 229.743 170.534 230.529C169.831 231.311 168.86 231.701 167.62 231.701C166.854 231.701 166.175 231.521 165.581 231.162C164.987 230.803 164.529 230.287 164.206 229.615C163.883 228.943 163.722 228.157 163.722 227.256C163.722 225.86 164.071 224.774 164.769 223.998C165.466 223.217 166.435 222.826 167.675 222.826C168.873 222.826 169.823 223.225 170.526 224.021C171.235 224.818 171.589 225.896 171.589 227.256ZM165.065 227.256C165.065 228.35 165.284 229.183 165.722 229.756C166.159 230.329 166.802 230.615 167.651 230.615C168.5 230.615 169.144 230.331 169.581 229.764C170.024 229.191 170.245 228.355 170.245 227.256C170.245 226.167 170.024 225.342 169.581 224.779C169.144 224.212 168.495 223.928 167.636 223.928C166.787 223.928 166.146 224.206 165.714 224.764C165.282 225.321 165.065 226.152 165.065 227.256ZM185.284 231.545V225.975C185.284 225.292 185.138 224.782 184.847 224.443C184.555 224.1 184.102 223.928 183.487 223.928C182.68 223.928 182.084 224.16 181.698 224.623C181.313 225.087 181.12 225.8 181.12 226.764V231.545H179.823V225.975C179.823 225.292 179.677 224.782 179.386 224.443C179.094 224.1 178.638 223.928 178.019 223.928C177.206 223.928 176.61 224.173 176.229 224.662C175.854 225.146 175.667 225.943 175.667 227.053V231.545H174.37V222.982H175.425L175.636 224.154H175.698C175.943 223.738 176.287 223.412 176.729 223.178C177.177 222.943 177.677 222.826 178.229 222.826C179.568 222.826 180.443 223.311 180.854 224.279H180.917C181.172 223.831 181.542 223.477 182.026 223.217C182.511 222.956 183.063 222.826 183.683 222.826C184.651 222.826 185.375 223.076 185.854 223.576C186.339 224.071 186.581 224.865 186.581 225.959V231.545H185.284ZM200.675 231.545V225.975C200.675 225.292 200.529 224.782 200.237 224.443C199.946 224.1 199.493 223.928 198.878 223.928C198.071 223.928 197.474 224.16 197.089 224.623C196.703 225.087 196.511 225.8 196.511 226.764V231.545H195.214V225.975C195.214 225.292 195.068 224.782 194.776 224.443C194.485 224.1 194.029 223.928 193.409 223.928C192.597 223.928 192 224.173 191.62 224.662C191.245 225.146 191.058 225.943 191.058 227.053V231.545H189.761V222.982H190.815L191.026 224.154H191.089C191.334 223.738 191.677 223.412 192.12 223.178C192.568 222.943 193.068 222.826 193.62 222.826C194.959 222.826 195.834 223.311 196.245 224.279H196.308C196.563 223.831 196.933 223.477 197.417 223.217C197.901 222.956 198.453 222.826 199.073 222.826C200.042 222.826 200.766 223.076 201.245 223.576C201.729 224.071 201.972 224.865 201.972 225.959V231.545H200.675ZM208.769 231.701C207.503 231.701 206.503 231.316 205.769 230.545C205.039 229.774 204.675 228.704 204.675 227.334C204.675 225.954 205.013 224.857 205.69 224.045C206.373 223.232 207.287 222.826 208.433 222.826C209.506 222.826 210.354 223.18 210.979 223.889C211.604 224.592 211.917 225.521 211.917 226.678V227.498H206.019C206.045 228.503 206.297 229.266 206.776 229.787C207.261 230.308 207.94 230.568 208.815 230.568C209.737 230.568 210.649 230.376 211.55 229.99V231.146C211.091 231.344 210.657 231.485 210.245 231.568C209.839 231.657 209.347 231.701 208.769 231.701ZM208.417 223.912C207.729 223.912 207.18 224.136 206.769 224.584C206.362 225.032 206.123 225.652 206.05 226.443H210.526C210.526 225.626 210.344 225.001 209.979 224.568C209.615 224.131 209.094 223.912 208.417 223.912ZM218.542 222.826C218.922 222.826 219.263 222.857 219.565 222.92L219.386 224.123C219.032 224.045 218.719 224.006 218.448 224.006C217.756 224.006 217.162 224.287 216.667 224.85C216.177 225.412 215.933 226.113 215.933 226.951V231.545H214.636V222.982H215.706L215.854 224.568H215.917C216.235 224.011 216.618 223.581 217.065 223.279C217.513 222.977 218.006 222.826 218.542 222.826ZM225.089 231.701C223.849 231.701 222.888 231.321 222.206 230.561C221.529 229.795 221.19 228.714 221.19 227.318C221.19 225.886 221.534 224.779 222.222 223.998C222.914 223.217 223.899 222.826 225.175 222.826C225.586 222.826 225.998 222.87 226.409 222.959C226.821 223.048 227.144 223.152 227.378 223.271L226.979 224.373C226.693 224.258 226.381 224.165 226.042 224.092C225.703 224.014 225.404 223.975 225.144 223.975C223.404 223.975 222.534 225.084 222.534 227.303C222.534 228.355 222.745 229.162 223.167 229.725C223.594 230.287 224.224 230.568 225.058 230.568C225.771 230.568 226.503 230.415 227.253 230.107V231.256C226.68 231.553 225.959 231.701 225.089 231.701ZM233.409 231.701C232.144 231.701 231.144 231.316 230.409 230.545C229.68 229.774 229.315 228.704 229.315 227.334C229.315 225.954 229.654 224.857 230.331 224.045C231.013 223.232 231.927 222.826 233.073 222.826C234.146 222.826 234.995 223.18 235.62 223.889C236.245 224.592 236.558 225.521 236.558 226.678V227.498H230.659C230.685 228.503 230.938 229.266 231.417 229.787C231.901 230.308 232.581 230.568 233.456 230.568C234.378 230.568 235.289 230.376 236.19 229.99V231.146C235.732 231.344 235.297 231.485 234.886 231.568C234.479 231.657 233.987 231.701 233.409 231.701ZM233.058 223.912C232.37 223.912 231.821 224.136 231.409 224.584C231.003 225.032 230.763 225.652 230.69 226.443H235.167C235.167 225.626 234.985 225.001 234.62 224.568C234.256 224.131 233.735 223.912 233.058 223.912ZM247.917 231.701C247.36 231.701 246.849 231.6 246.386 231.396C245.927 231.188 245.542 230.87 245.229 230.443H245.136C245.198 230.943 245.229 231.417 245.229 231.865V235.389H243.933V222.982H244.987L245.167 224.154H245.229C245.563 223.686 245.951 223.347 246.394 223.139C246.836 222.93 247.344 222.826 247.917 222.826C249.052 222.826 249.927 223.214 250.542 223.99C251.162 224.766 251.472 225.855 251.472 227.256C251.472 228.662 251.157 229.756 250.526 230.537C249.901 231.313 249.032 231.701 247.917 231.701ZM247.729 223.928C246.854 223.928 246.222 224.17 245.831 224.654C245.44 225.139 245.24 225.91 245.229 226.967V227.256C245.229 228.459 245.43 229.321 245.831 229.842C246.232 230.357 246.875 230.615 247.761 230.615C248.5 230.615 249.078 230.316 249.495 229.717C249.917 229.118 250.128 228.292 250.128 227.24C250.128 226.173 249.917 225.355 249.495 224.787C249.078 224.214 248.49 223.928 247.729 223.928ZM255.542 231.545H254.245V219.389H255.542V231.545ZM264.058 231.545L263.8 230.326H263.737C263.31 230.863 262.883 231.227 262.456 231.42C262.034 231.607 261.506 231.701 260.87 231.701C260.021 231.701 259.354 231.482 258.87 231.045C258.391 230.607 258.151 229.985 258.151 229.178C258.151 227.449 259.534 226.542 262.3 226.459L263.753 226.412V225.881C263.753 225.209 263.607 224.714 263.315 224.396C263.029 224.074 262.568 223.912 261.933 223.912C261.219 223.912 260.412 224.131 259.511 224.568L259.112 223.576C259.534 223.347 259.995 223.167 260.495 223.037C261 222.907 261.506 222.842 262.011 222.842C263.032 222.842 263.787 223.068 264.276 223.521C264.771 223.975 265.019 224.701 265.019 225.701V231.545H264.058ZM261.128 230.631C261.935 230.631 262.568 230.41 263.026 229.967C263.49 229.524 263.722 228.904 263.722 228.107V227.334L262.425 227.389C261.394 227.425 260.649 227.587 260.19 227.873C259.737 228.154 259.511 228.594 259.511 229.193C259.511 229.662 259.651 230.019 259.933 230.264C260.219 230.508 260.618 230.631 261.128 230.631ZM270.964 230.631C271.193 230.631 271.414 230.615 271.628 230.584C271.841 230.548 272.011 230.511 272.136 230.475V231.467C271.995 231.535 271.787 231.589 271.511 231.631C271.24 231.678 270.995 231.701 270.776 231.701C269.12 231.701 268.292 230.829 268.292 229.084V223.99H267.065V223.365L268.292 222.826L268.839 220.998H269.589V222.982H272.073V223.99H269.589V229.029C269.589 229.545 269.711 229.941 269.956 230.217C270.201 230.493 270.537 230.631 270.964 230.631ZM278.214 223.99H276.034V231.545H274.737V223.99H273.206V223.404L274.737 222.936V222.459C274.737 220.355 275.657 219.303 277.495 219.303C277.948 219.303 278.479 219.394 279.089 219.576L278.753 220.615C278.253 220.454 277.826 220.373 277.472 220.373C276.982 220.373 276.62 220.537 276.386 220.865C276.151 221.188 276.034 221.709 276.034 222.428V222.982H278.214V223.99ZM287.667 227.256C287.667 228.652 287.315 229.743 286.612 230.529C285.909 231.311 284.938 231.701 283.698 231.701C282.933 231.701 282.253 231.521 281.659 231.162C281.065 230.803 280.607 230.287 280.284 229.615C279.961 228.943 279.8 228.157 279.8 227.256C279.8 225.86 280.149 224.774 280.847 223.998C281.545 223.217 282.513 222.826 283.753 222.826C284.951 222.826 285.901 223.225 286.604 224.021C287.313 224.818 287.667 225.896 287.667 227.256ZM281.144 227.256C281.144 228.35 281.362 229.183 281.8 229.756C282.237 230.329 282.881 230.615 283.729 230.615C284.578 230.615 285.222 230.331 285.659 229.764C286.102 229.191 286.323 228.355 286.323 227.256C286.323 226.167 286.102 225.342 285.659 224.779C285.222 224.212 284.573 223.928 283.714 223.928C282.865 223.928 282.224 224.206 281.792 224.764C281.36 225.321 281.144 226.152 281.144 227.256ZM294.354 222.826C294.735 222.826 295.076 222.857 295.378 222.92L295.198 224.123C294.844 224.045 294.532 224.006 294.261 224.006C293.568 224.006 292.974 224.287 292.479 224.85C291.99 225.412 291.745 226.113 291.745 226.951V231.545H290.448V222.982H291.519L291.667 224.568H291.729C292.047 224.011 292.43 223.581 292.878 223.279C293.326 222.977 293.818 222.826 294.354 222.826ZM308.394 231.545V225.975C308.394 225.292 308.248 224.782 307.956 224.443C307.664 224.1 307.211 223.928 306.597 223.928C305.789 223.928 305.193 224.16 304.808 224.623C304.422 225.087 304.229 225.8 304.229 226.764V231.545H302.933V225.975C302.933 225.292 302.787 224.782 302.495 224.443C302.203 224.1 301.748 223.928 301.128 223.928C300.315 223.928 299.719 224.173 299.339 224.662C298.964 225.146 298.776 225.943 298.776 227.053V231.545H297.479V222.982H298.534L298.745 224.154H298.808C299.052 223.738 299.396 223.412 299.839 223.178C300.287 222.943 300.787 222.826 301.339 222.826C302.677 222.826 303.552 223.311 303.964 224.279H304.026C304.282 223.831 304.651 223.477 305.136 223.217C305.62 222.956 306.172 222.826 306.792 222.826C307.761 222.826 308.485 223.076 308.964 223.576C309.448 224.071 309.69 224.865 309.69 225.959V231.545H308.394Z" fill="#1C1C3B" fill-opacity="0.87"/>
<mask id="path-15-inside-1_1344_7207" fill="white">
</mask>
<path d="M339.565 290.266V336.266H340.565V290.266H339.565ZM336.065 339.766H24.0654V340.766H336.065V339.766ZM20.5654 336.266V290.266H19.5654V336.266H20.5654ZM24.0654 286.766H30.9296V285.766H24.0654V286.766ZM328.358 286.766H336.065V285.766H328.358V286.766ZM24.0654 339.766C22.1324 339.766 20.5654 338.199 20.5654 336.266H19.5654C19.5654 338.751 21.5801 340.766 24.0654 340.766V339.766ZM339.565 336.266C339.565 338.199 337.998 339.766 336.065 339.766V340.766C338.551 340.766 340.565 338.751 340.565 336.266H339.565ZM340.565 290.266C340.565 287.78 338.551 285.766 336.065 285.766V286.766C337.998 286.766 339.565 288.333 339.565 290.266H340.565ZM20.5654 290.266C20.5654 288.333 22.1324 286.766 24.0654 286.766V285.766C21.5801 285.766 19.5654 287.78 19.5654 290.266H20.5654Z" fill="#009FD9" mask="url(#path-15-inside-1_1344_7207)"/>
<path d="M40.4795 320.422C39.3962 320.422 38.5368 320.052 37.9014 319.312C37.2712 318.573 36.9561 317.474 36.9561 316.016C36.9561 314.542 37.279 313.43 37.9248 312.68C38.5706 311.924 39.43 311.547 40.5029 311.547C40.9561 311.547 41.3519 311.607 41.6904 311.727C42.029 311.846 42.3206 312.008 42.5654 312.211C42.8102 312.409 43.016 312.635 43.1826 312.891H43.2764C43.2555 312.729 43.2347 312.508 43.2139 312.227C43.193 311.945 43.1826 311.716 43.1826 311.539V308.109H44.4795V320.266H43.4326L43.2373 319.047H43.1826C43.0212 319.302 42.8154 319.534 42.5654 319.742C42.3206 319.951 42.0264 320.117 41.6826 320.242C41.3441 320.362 40.943 320.422 40.4795 320.422ZM40.6826 319.344C41.5993 319.344 42.2477 319.083 42.6279 318.562C43.0081 318.042 43.1982 317.268 43.1982 316.242V316.008C43.1982 314.919 43.016 314.083 42.6514 313.5C42.292 312.917 41.6357 312.625 40.6826 312.625C39.8857 312.625 39.2894 312.932 38.8936 313.547C38.4977 314.156 38.2998 314.99 38.2998 316.047C38.2998 317.099 38.4951 317.911 38.8857 318.484C39.2816 319.057 39.8805 319.344 40.6826 319.344ZM50.6764 311.547C51.4055 311.547 52.0305 311.708 52.5514 312.031C53.0722 312.354 53.4706 312.807 53.7467 313.391C54.0227 313.969 54.1607 314.646 54.1607 315.422V316.227H48.2467C48.2623 317.232 48.5123 317.997 48.9967 318.523C49.4811 319.049 50.1633 319.312 51.0436 319.312C51.5852 319.312 52.0644 319.263 52.4811 319.164C52.8977 319.065 53.33 318.919 53.7779 318.727V319.867C53.3456 320.06 52.916 320.201 52.4889 320.289C52.067 320.378 51.567 320.422 50.9889 320.422C50.166 320.422 49.4472 320.255 48.8326 319.922C48.2232 319.583 47.7493 319.089 47.4107 318.438C47.0722 317.786 46.9029 316.99 46.9029 316.047C46.9029 315.125 47.0566 314.328 47.3639 313.656C47.6764 312.979 48.1139 312.458 48.6764 312.094C49.2441 311.729 49.9107 311.547 50.6764 311.547ZM50.6607 312.609C49.968 312.609 49.416 312.836 49.0045 313.289C48.593 313.742 48.3482 314.375 48.2701 315.188H52.8014C52.7962 314.677 52.7154 314.229 52.5592 313.844C52.4081 313.453 52.1764 313.151 51.8639 312.938C51.5514 312.719 51.1503 312.609 50.6607 312.609ZM57.8107 308.109V311.148C57.8107 311.497 57.8003 311.836 57.7795 312.164C57.7639 312.492 57.7508 312.747 57.7404 312.93H57.8107C58.0451 312.544 58.3837 312.219 58.8264 311.953C59.2691 311.688 59.8342 311.555 60.5217 311.555C61.5946 311.555 62.4488 311.927 63.0842 312.672C63.7248 313.411 64.0451 314.513 64.0451 315.977C64.0451 316.94 63.8993 317.753 63.6076 318.414C63.3159 319.076 62.9045 319.576 62.3732 319.914C61.842 320.253 61.2144 320.422 60.4904 320.422C59.8133 320.422 59.2561 320.297 58.8186 320.047C58.3863 319.792 58.0529 319.482 57.8186 319.117H57.717L57.4514 320.266H56.5139V308.109H57.8107ZM60.3107 312.641C59.6909 312.641 59.1988 312.763 58.8342 313.008C58.4696 313.247 58.2066 313.612 58.0451 314.102C57.8889 314.586 57.8107 315.201 57.8107 315.945V316.016C57.8107 317.094 57.9904 317.919 58.3498 318.492C58.7092 319.06 59.3628 319.344 60.3107 319.344C61.1076 319.344 61.704 319.052 62.0998 318.469C62.5008 317.885 62.7014 317.052 62.7014 315.969C62.7014 314.865 62.5034 314.034 62.1076 313.477C61.717 312.919 61.118 312.641 60.3107 312.641ZM70.3514 311.547C70.5232 311.547 70.7029 311.557 70.8904 311.578C71.0779 311.594 71.2446 311.617 71.3904 311.648L71.2264 312.852C71.0857 312.815 70.9295 312.786 70.7576 312.766C70.5857 312.745 70.4243 312.734 70.2732 312.734C69.9295 312.734 69.604 312.805 69.2967 312.945C68.9946 313.081 68.729 313.279 68.4998 313.539C68.2706 313.794 68.091 314.104 67.9607 314.469C67.8305 314.828 67.7654 315.229 67.7654 315.672V320.266H66.4607V311.703H67.5389L67.6795 313.281H67.7342C67.9113 312.964 68.1248 312.674 68.3748 312.414C68.6248 312.148 68.9139 311.938 69.242 311.781C69.5753 311.625 69.9451 311.547 70.3514 311.547ZM76.3607 311.562C77.3816 311.562 78.1394 311.792 78.6342 312.25C79.129 312.708 79.3764 313.44 79.3764 314.445V320.266H78.4311L78.1811 319H78.1186C77.879 319.312 77.629 319.576 77.3686 319.789C77.1081 319.997 76.8061 320.156 76.4623 320.266C76.1238 320.37 75.7071 320.422 75.2123 320.422C74.6915 320.422 74.2279 320.331 73.8217 320.148C73.4206 319.966 73.1029 319.69 72.8686 319.32C72.6394 318.951 72.5248 318.482 72.5248 317.914C72.5248 317.06 72.8633 316.404 73.5404 315.945C74.2175 315.487 75.2488 315.237 76.6342 315.195L78.1107 315.133V314.609C78.1107 313.87 77.9519 313.352 77.6342 313.055C77.3165 312.758 76.8686 312.609 76.2904 312.609C75.8425 312.609 75.4154 312.674 75.0092 312.805C74.6029 312.935 74.2175 313.089 73.8529 313.266L73.4545 312.281C73.8399 312.083 74.2826 311.914 74.7826 311.773C75.2826 311.633 75.8087 311.562 76.3607 311.562ZM78.0951 316.047L76.7904 316.102C75.7227 316.143 74.9701 316.318 74.5326 316.625C74.0951 316.932 73.8764 317.367 73.8764 317.93C73.8764 318.419 74.0248 318.781 74.3217 319.016C74.6186 319.25 75.0118 319.367 75.5014 319.367C76.2618 319.367 76.8842 319.156 77.3686 318.734C77.8529 318.312 78.0951 317.68 78.0951 316.836V316.047ZM82.0029 319.453C82.0029 319.089 82.0915 318.831 82.2686 318.68C82.4456 318.523 82.6618 318.445 82.917 318.445C83.1826 318.445 83.4066 318.523 83.5889 318.68C83.7712 318.831 83.8623 319.089 83.8623 319.453C83.8623 319.812 83.7712 320.076 83.5889 320.242C83.4066 320.404 83.1826 320.484 82.917 320.484C82.6618 320.484 82.4456 320.404 82.2686 320.242C82.0915 320.076 82.0029 319.812 82.0029 319.453ZM87.8482 308.109V311.742C87.8482 311.951 87.843 312.161 87.8326 312.375C87.8222 312.583 87.804 312.776 87.7779 312.953H87.8639C88.041 312.651 88.2649 312.398 88.5357 312.195C88.8118 311.987 89.1243 311.831 89.4732 311.727C89.8222 311.617 90.192 311.562 90.5826 311.562C91.2701 311.562 91.843 311.672 92.3014 311.891C92.7649 312.109 93.1113 312.448 93.3404 312.906C93.5748 313.365 93.692 313.958 93.692 314.688V320.266H92.4107V314.773C92.4107 314.06 92.2467 313.526 91.9186 313.172C91.5956 312.818 91.0982 312.641 90.4264 312.641C89.791 312.641 89.2831 312.763 88.9029 313.008C88.5279 313.247 88.2571 313.602 88.0904 314.07C87.929 314.539 87.8482 315.112 87.8482 315.789V320.266H86.5514V308.109H87.8482ZM103.897 315.969C103.897 316.672 103.806 317.299 103.623 317.852C103.441 318.404 103.178 318.87 102.834 319.25C102.49 319.63 102.074 319.922 101.584 320.125C101.1 320.323 100.55 320.422 99.9357 320.422C99.3628 320.422 98.8368 320.323 98.3576 320.125C97.8837 319.922 97.4722 319.63 97.1232 319.25C96.7795 318.87 96.5113 318.404 96.3186 317.852C96.1311 317.299 96.0373 316.672 96.0373 315.969C96.0373 315.031 96.1962 314.234 96.5139 313.578C96.8316 312.917 97.2847 312.414 97.8732 312.07C98.467 311.721 99.1727 311.547 99.9904 311.547C100.772 311.547 101.454 311.721 102.037 312.07C102.626 312.419 103.082 312.924 103.404 313.586C103.733 314.242 103.897 315.036 103.897 315.969ZM97.3811 315.969C97.3811 316.656 97.4722 317.253 97.6545 317.758C97.8368 318.263 98.118 318.654 98.4982 318.93C98.8784 319.206 99.368 319.344 99.967 319.344C100.561 319.344 101.048 319.206 101.428 318.93C101.813 318.654 102.097 318.263 102.279 317.758C102.462 317.253 102.553 316.656 102.553 315.969C102.553 315.286 102.462 314.698 102.279 314.203C102.097 313.703 101.816 313.318 101.436 313.047C101.056 312.776 100.563 312.641 99.9592 312.641C99.0686 312.641 98.4149 312.935 97.9982 313.523C97.5868 314.112 97.3811 314.927 97.3811 315.969ZM107.594 320.266H106.289V308.109H107.594V320.266ZM113.251 319.359C113.465 319.359 113.684 319.341 113.908 319.305C114.132 319.268 114.314 319.224 114.454 319.172V320.18C114.303 320.247 114.093 320.305 113.822 320.352C113.556 320.398 113.296 320.422 113.04 320.422C112.587 320.422 112.176 320.344 111.806 320.188C111.436 320.026 111.139 319.755 110.915 319.375C110.697 318.995 110.587 318.469 110.587 317.797V312.719H109.369V312.086L110.595 311.578L111.111 309.719H111.892V311.703H114.4V312.719H111.892V317.758C111.892 318.294 112.014 318.695 112.259 318.961C112.509 319.227 112.84 319.359 113.251 319.359ZM128.401 314.562C128.401 315.057 128.344 315.542 128.229 316.016C128.12 316.484 127.951 316.909 127.722 317.289C127.493 317.664 127.206 317.964 126.862 318.188C126.524 318.411 126.123 318.523 125.659 318.523C125.175 318.523 124.789 318.383 124.503 318.102C124.216 317.82 124.045 317.487 123.987 317.102H123.917C123.719 317.513 123.427 317.854 123.042 318.125C122.662 318.391 122.193 318.523 121.636 318.523C120.823 318.523 120.196 318.255 119.753 317.719C119.315 317.177 119.097 316.458 119.097 315.562C119.097 314.865 119.235 314.247 119.511 313.711C119.792 313.169 120.185 312.745 120.69 312.438C121.201 312.125 121.802 311.969 122.495 311.969C122.959 311.969 123.409 312.008 123.847 312.086C124.284 312.164 124.633 312.25 124.894 312.344L124.737 315.492C124.732 315.685 124.727 315.833 124.722 315.938C124.716 316.036 124.714 316.115 124.714 316.172C124.714 316.734 124.813 317.115 125.011 317.312C125.214 317.505 125.459 317.602 125.745 317.602C126.094 317.602 126.386 317.466 126.62 317.195C126.86 316.919 127.042 316.552 127.167 316.094C127.292 315.63 127.354 315.117 127.354 314.555C127.354 313.56 127.154 312.711 126.753 312.008C126.352 311.305 125.797 310.768 125.089 310.398C124.386 310.029 123.576 309.844 122.659 309.844C121.748 309.844 120.938 309.987 120.229 310.273C119.526 310.56 118.93 310.966 118.44 311.492C117.956 312.013 117.589 312.633 117.339 313.352C117.089 314.07 116.964 314.865 116.964 315.734C116.964 316.797 117.151 317.701 117.526 318.445C117.907 319.19 118.461 319.758 119.19 320.148C119.925 320.534 120.818 320.727 121.87 320.727C122.506 320.727 123.118 320.656 123.706 320.516C124.295 320.375 124.821 320.216 125.284 320.039V321.055C124.826 321.247 124.313 321.404 123.745 321.523C123.177 321.648 122.552 321.711 121.87 321.711C120.615 321.711 119.542 321.474 118.651 321C117.761 320.531 117.078 319.854 116.604 318.969C116.131 318.083 115.894 317.021 115.894 315.781C115.894 314.776 116.047 313.852 116.354 313.008C116.667 312.164 117.115 311.432 117.698 310.812C118.287 310.193 118.998 309.714 119.831 309.375C120.67 309.031 121.612 308.859 122.659 308.859C123.779 308.859 124.769 309.091 125.628 309.555C126.493 310.013 127.17 310.669 127.659 311.523C128.154 312.372 128.401 313.385 128.401 314.562ZM120.261 315.594C120.261 316.286 120.399 316.794 120.675 317.117C120.951 317.44 121.334 317.602 121.823 317.602C122.427 317.602 122.87 317.375 123.151 316.922C123.438 316.469 123.602 315.87 123.644 315.125L123.737 313.086C123.586 313.039 123.401 313 123.183 312.969C122.969 312.932 122.745 312.914 122.511 312.914C121.974 312.914 121.539 313.042 121.206 313.297C120.878 313.552 120.638 313.883 120.487 314.289C120.336 314.695 120.261 315.13 120.261 315.594ZM134.129 311.547C134.859 311.547 135.484 311.708 136.004 312.031C136.525 312.354 136.924 312.807 137.2 313.391C137.476 313.969 137.614 314.646 137.614 315.422V316.227H131.7C131.715 317.232 131.965 317.997 132.45 318.523C132.934 319.049 133.616 319.312 134.497 319.312C135.038 319.312 135.518 319.263 135.934 319.164C136.351 319.065 136.783 318.919 137.231 318.727V319.867C136.799 320.06 136.369 320.201 135.942 320.289C135.52 320.378 135.02 320.422 134.442 320.422C133.619 320.422 132.9 320.255 132.286 319.922C131.676 319.583 131.202 319.089 130.864 318.438C130.525 317.786 130.356 316.99 130.356 316.047C130.356 315.125 130.51 314.328 130.817 313.656C131.129 312.979 131.567 312.458 132.129 312.094C132.697 311.729 133.364 311.547 134.129 311.547ZM134.114 312.609C133.421 312.609 132.869 312.836 132.458 313.289C132.046 313.742 131.801 314.375 131.723 315.188H136.254C136.249 314.677 136.169 314.229 136.012 313.844C135.861 313.453 135.629 313.151 135.317 312.938C135.004 312.719 134.603 312.609 134.114 312.609ZM142.006 315.883L139.045 311.703H140.529L142.787 315L145.037 311.703H146.506L143.545 315.883L146.67 320.266H145.186L142.787 316.773L140.373 320.266H138.904L142.006 315.883ZM151.695 311.562C152.716 311.562 153.474 311.792 153.969 312.25C154.463 312.708 154.711 313.44 154.711 314.445V320.266H153.765L153.515 319H153.453C153.213 319.312 152.963 319.576 152.703 319.789C152.443 319.997 152.14 320.156 151.797 320.266C151.458 320.37 151.041 320.422 150.547 320.422C150.026 320.422 149.562 320.331 149.156 320.148C148.755 319.966 148.437 319.69 148.203 319.32C147.974 318.951 147.859 318.482 147.859 317.914C147.859 317.06 148.198 316.404 148.875 315.945C149.552 315.487 150.583 315.237 151.969 315.195L153.445 315.133V314.609C153.445 313.87 153.286 313.352 152.969 313.055C152.651 312.758 152.203 312.609 151.625 312.609C151.177 312.609 150.75 312.674 150.344 312.805C149.937 312.935 149.552 313.089 149.187 313.266L148.789 312.281C149.174 312.083 149.617 311.914 150.117 311.773C150.617 311.633 151.143 311.562 151.695 311.562ZM153.429 316.047L152.125 316.102C151.057 316.143 150.304 316.318 149.867 316.625C149.429 316.932 149.211 317.367 149.211 317.93C149.211 318.419 149.359 318.781 149.656 319.016C149.953 319.25 150.346 319.367 150.836 319.367C151.596 319.367 152.219 319.156 152.703 318.734C153.187 318.312 153.429 317.68 153.429 316.836V316.047ZM166.829 311.547C167.772 311.547 168.483 311.794 168.962 312.289C169.441 312.779 169.681 313.568 169.681 314.656V320.266H168.4V314.719C168.4 314.026 168.249 313.508 167.947 313.164C167.65 312.815 167.207 312.641 166.619 312.641C165.79 312.641 165.189 312.88 164.814 313.359C164.439 313.839 164.251 314.544 164.251 315.477V320.266H162.962V314.719C162.962 314.255 162.895 313.87 162.759 313.562C162.629 313.255 162.431 313.026 162.165 312.875C161.905 312.719 161.574 312.641 161.173 312.641C160.606 312.641 160.15 312.758 159.806 312.992C159.462 313.227 159.212 313.576 159.056 314.039C158.905 314.497 158.829 315.062 158.829 315.734V320.266H157.533V311.703H158.579L158.775 312.914H158.845C159.017 312.617 159.233 312.367 159.494 312.164C159.754 311.961 160.046 311.807 160.369 311.703C160.691 311.599 161.035 311.547 161.4 311.547C162.051 311.547 162.595 311.669 163.033 311.914C163.475 312.154 163.796 312.521 163.994 313.016H164.064C164.345 312.521 164.731 312.154 165.22 311.914C165.71 311.669 166.246 311.547 166.829 311.547ZM176.519 311.547C177.586 311.547 178.438 311.914 179.073 312.648C179.709 313.383 180.026 314.487 180.026 315.961C180.026 316.935 179.881 317.753 179.589 318.414C179.297 319.076 178.886 319.576 178.354 319.914C177.828 320.253 177.206 320.422 176.487 320.422C176.034 320.422 175.636 320.362 175.292 320.242C174.948 320.122 174.654 319.961 174.409 319.758C174.164 319.555 173.961 319.333 173.8 319.094H173.706C173.722 319.297 173.74 319.542 173.761 319.828C173.787 320.115 173.8 320.365 173.8 320.578V324.094H172.495V311.703H173.565L173.737 312.969H173.8C173.966 312.708 174.17 312.471 174.409 312.258C174.649 312.039 174.94 311.867 175.284 311.742C175.633 311.612 176.045 311.547 176.519 311.547ZM176.292 312.641C175.698 312.641 175.219 312.755 174.854 312.984C174.495 313.214 174.232 313.557 174.065 314.016C173.899 314.469 173.81 315.039 173.8 315.727V315.977C173.8 316.701 173.878 317.312 174.034 317.812C174.196 318.312 174.459 318.693 174.823 318.953C175.193 319.214 175.688 319.344 176.308 319.344C176.839 319.344 177.282 319.201 177.636 318.914C177.99 318.628 178.253 318.229 178.425 317.719C178.602 317.203 178.69 316.612 178.69 315.945C178.69 314.935 178.493 314.133 178.097 313.539C177.706 312.94 177.104 312.641 176.292 312.641ZM183.747 320.266H182.442V308.109H183.747V320.266ZM189.936 311.547C190.665 311.547 191.29 311.708 191.811 312.031C192.332 312.354 192.73 312.807 193.006 313.391C193.282 313.969 193.42 314.646 193.42 315.422V316.227H187.506C187.522 317.232 187.772 317.997 188.256 318.523C188.74 319.049 189.423 319.312 190.303 319.312C190.845 319.312 191.324 319.263 191.74 319.164C192.157 319.065 192.589 318.919 193.037 318.727V319.867C192.605 320.06 192.175 320.201 191.748 320.289C191.326 320.378 190.826 320.422 190.248 320.422C189.425 320.422 188.707 320.255 188.092 319.922C187.483 319.583 187.009 319.089 186.67 318.438C186.332 317.786 186.162 316.99 186.162 316.047C186.162 315.125 186.316 314.328 186.623 313.656C186.936 312.979 187.373 312.458 187.936 312.094C188.503 311.729 189.17 311.547 189.936 311.547ZM189.92 312.609C189.227 312.609 188.675 312.836 188.264 313.289C187.852 313.742 187.608 314.375 187.529 315.188H192.061C192.056 314.677 191.975 314.229 191.819 313.844C191.668 313.453 191.436 313.151 191.123 312.938C190.811 312.719 190.41 312.609 189.92 312.609ZM195.578 319.453C195.578 319.089 195.666 318.831 195.844 318.68C196.021 318.523 196.237 318.445 196.492 318.445C196.758 318.445 196.982 318.523 197.164 318.68C197.346 318.831 197.437 319.089 197.437 319.453C197.437 319.812 197.346 320.076 197.164 320.242C196.982 320.404 196.758 320.484 196.492 320.484C196.237 320.484 196.021 320.404 195.844 320.242C195.666 320.076 195.578 319.812 195.578 319.453ZM203.556 320.422C202.785 320.422 202.106 320.263 201.517 319.945C200.928 319.628 200.47 319.143 200.142 318.492C199.814 317.841 199.65 317.021 199.65 316.031C199.65 314.995 199.822 314.148 200.165 313.492C200.514 312.831 200.994 312.341 201.603 312.023C202.212 311.706 202.905 311.547 203.681 311.547C204.108 311.547 204.52 311.591 204.915 311.68C205.316 311.763 205.645 311.87 205.9 312L205.509 313.086C205.249 312.982 204.947 312.888 204.603 312.805C204.264 312.721 203.947 312.68 203.65 312.68C203.056 312.68 202.561 312.807 202.165 313.062C201.775 313.318 201.481 313.693 201.283 314.188C201.09 314.682 200.994 315.292 200.994 316.016C200.994 316.708 201.087 317.299 201.275 317.789C201.468 318.279 201.751 318.654 202.126 318.914C202.507 319.169 202.981 319.297 203.548 319.297C204.001 319.297 204.41 319.25 204.775 319.156C205.139 319.057 205.47 318.943 205.767 318.812V319.969C205.481 320.115 205.16 320.227 204.806 320.305C204.457 320.383 204.04 320.422 203.556 320.422ZM215.331 315.969C215.331 316.672 215.24 317.299 215.058 317.852C214.875 318.404 214.612 318.87 214.269 319.25C213.925 319.63 213.508 319.922 213.019 320.125C212.534 320.323 211.985 320.422 211.37 320.422C210.797 320.422 210.271 320.323 209.792 320.125C209.318 319.922 208.907 319.63 208.558 319.25C208.214 318.87 207.946 318.404 207.753 317.852C207.565 317.299 207.472 316.672 207.472 315.969C207.472 315.031 207.631 314.234 207.948 313.578C208.266 312.917 208.719 312.414 209.308 312.07C209.901 311.721 210.607 311.547 211.425 311.547C212.206 311.547 212.888 311.721 213.472 312.07C214.06 312.419 214.516 312.924 214.839 313.586C215.167 314.242 215.331 315.036 215.331 315.969ZM208.815 315.969C208.815 316.656 208.907 317.253 209.089 317.758C209.271 318.263 209.552 318.654 209.933 318.93C210.313 319.206 210.802 319.344 211.401 319.344C211.995 319.344 212.482 319.206 212.862 318.93C213.248 318.654 213.532 318.263 213.714 317.758C213.896 317.253 213.987 316.656 213.987 315.969C213.987 315.286 213.896 314.698 213.714 314.203C213.532 313.703 213.25 313.318 212.87 313.047C212.49 312.776 211.998 312.641 211.394 312.641C210.503 312.641 209.849 312.935 209.433 313.523C209.021 314.112 208.815 314.927 208.815 315.969ZM227.02 311.547C227.963 311.547 228.674 311.794 229.153 312.289C229.632 312.779 229.872 313.568 229.872 314.656V320.266H228.59V314.719C228.59 314.026 228.439 313.508 228.137 313.164C227.84 312.815 227.398 312.641 226.809 312.641C225.981 312.641 225.379 312.88 225.004 313.359C224.629 313.839 224.442 314.544 224.442 315.477V320.266H223.153V314.719C223.153 314.255 223.085 313.87 222.95 313.562C222.82 313.255 222.622 313.026 222.356 312.875C222.096 312.719 221.765 312.641 221.364 312.641C220.796 312.641 220.34 312.758 219.997 312.992C219.653 313.227 219.403 313.576 219.247 314.039C219.096 314.497 219.02 315.062 219.02 315.734V320.266H217.723V311.703H218.77L218.965 312.914H219.036C219.208 312.617 219.424 312.367 219.684 312.164C219.945 311.961 220.236 311.807 220.559 311.703C220.882 311.599 221.226 311.547 221.59 311.547C222.241 311.547 222.786 311.669 223.223 311.914C223.666 312.154 223.986 312.521 224.184 313.016H224.254C224.536 312.521 224.921 312.154 225.411 311.914C225.9 311.669 226.437 311.547 227.02 311.547Z" fill="#1C1C3B" fill-opacity="0.87"/>
<rect x="232.065" y="305.766" width="1" height="17" fill="#1C1C3B" fill-opacity="0.87"/>
<path d="M41.6514 291.266H36.7998V282.699H41.6514V283.883H38.2061V286.209H41.4346V287.387H38.2061V290.076H41.6514V291.266ZM51.0924 284.656C51.8189 284.656 52.3658 284.844 52.733 285.219C53.1041 285.594 53.2896 286.195 53.2896 287.023V291.266H51.9127V287.27C51.9127 286.777 51.817 286.406 51.6256 286.156C51.4342 285.906 51.1432 285.781 50.7525 285.781C50.2057 285.781 49.8111 285.957 49.5689 286.309C49.3307 286.656 49.2115 287.162 49.2115 287.826V291.266H47.8346V287.27C47.8346 286.941 47.7916 286.668 47.7057 286.449C47.6236 286.227 47.4967 286.061 47.3248 285.951C47.1529 285.838 46.9361 285.781 46.6744 285.781C46.2955 285.781 45.9928 285.867 45.7662 286.039C45.5436 286.211 45.3834 286.465 45.2857 286.801C45.1881 287.133 45.1393 287.541 45.1393 288.025V291.266H43.7623V284.779H44.8346L45.0279 285.652H45.1041C45.2369 285.426 45.401 285.24 45.5963 285.096C45.7955 284.947 46.0162 284.838 46.2584 284.768C46.5006 284.693 46.7525 284.656 47.0143 284.656C47.4986 284.656 47.9068 284.742 48.2389 284.914C48.5709 285.082 48.8189 285.34 48.983 285.688H49.0885C49.2916 285.336 49.5748 285.076 49.9381 284.908C50.3014 284.74 50.6861 284.656 51.0924 284.656ZM58.1545 284.656C58.9748 284.656 59.5939 284.838 60.0119 285.201C60.4338 285.564 60.6447 286.131 60.6447 286.9V291.266H59.6662L59.4025 290.346H59.3557C59.1721 290.58 58.9826 290.773 58.7873 290.926C58.592 291.078 58.3654 291.191 58.1076 291.266C57.8537 291.344 57.5432 291.383 57.176 291.383C56.7893 291.383 56.4436 291.312 56.1389 291.172C55.8342 291.027 55.5939 290.809 55.4182 290.516C55.2424 290.223 55.1545 289.852 55.1545 289.402C55.1545 288.734 55.4025 288.232 55.8986 287.896C56.3986 287.561 57.1525 287.375 58.1604 287.34L59.2854 287.299V286.959C59.2854 286.51 59.1799 286.189 58.9689 285.998C58.7619 285.807 58.4689 285.711 58.09 285.711C57.7658 285.711 57.4514 285.758 57.1467 285.852C56.842 285.945 56.5451 286.061 56.2561 286.197L55.8107 285.225C56.1271 285.057 56.4865 284.92 56.8889 284.814C57.2951 284.709 57.717 284.656 58.1545 284.656ZM59.2795 288.166L58.4416 288.195C57.7541 288.219 57.2717 288.336 56.9943 288.547C56.717 288.758 56.5783 289.047 56.5783 289.414C56.5783 289.734 56.674 289.969 56.8654 290.117C57.0568 290.262 57.3088 290.334 57.6213 290.334C58.0979 290.334 58.4924 290.199 58.8049 289.93C59.1213 289.656 59.2795 289.256 59.2795 288.729V288.166ZM64.3494 284.779V291.266H62.9725V284.779H64.3494ZM63.6697 282.295C63.8807 282.295 64.0623 282.352 64.2146 282.465C64.3709 282.578 64.449 282.773 64.449 283.051C64.449 283.324 64.3709 283.52 64.2146 283.637C64.0623 283.75 63.8807 283.807 63.6697 283.807C63.451 283.807 63.2654 283.75 63.1131 283.637C62.9646 283.52 62.8904 283.324 62.8904 283.051C62.8904 282.773 62.9646 282.578 63.1131 282.465C63.2654 282.352 63.451 282.295 63.6697 282.295ZM68.1068 291.266H66.724V282.148H68.1068V291.266ZM79.442 291.266L78.6041 288.887H75.3287L74.4908 291.266H73.0084L76.1959 282.664H77.7545L80.9361 291.266H79.442ZM78.2408 287.68L77.4264 285.336C77.3951 285.234 77.3502 285.092 77.2916 284.908C77.233 284.721 77.1744 284.531 77.1158 284.34C77.0572 284.145 77.0084 283.98 76.9693 283.848C76.9303 284.008 76.8814 284.188 76.8229 284.387C76.7682 284.582 76.7135 284.766 76.6588 284.938C76.608 285.109 76.5689 285.242 76.5416 285.336L75.7213 287.68H78.2408ZM84.5061 291.383C83.7326 291.383 83.1115 291.102 82.6428 290.539C82.1779 289.973 81.9455 289.139 81.9455 288.037C81.9455 286.924 82.1818 286.082 82.6545 285.512C83.1311 284.941 83.758 284.656 84.5354 284.656C84.8635 284.656 85.1506 284.701 85.3967 284.791C85.6428 284.877 85.8537 284.994 86.0295 285.143C86.2092 285.291 86.3615 285.457 86.4865 285.641H86.551C86.5314 285.52 86.508 285.346 86.4807 285.119C86.4572 284.889 86.4455 284.676 86.4455 284.48V282.148H87.8283V291.266H86.7502L86.5041 290.381H86.4455C86.3283 290.568 86.1799 290.738 86.0002 290.891C85.8244 291.039 85.6135 291.158 85.3674 291.248C85.1252 291.338 84.8381 291.383 84.5061 291.383ZM84.8928 290.264C85.4826 290.264 85.8986 290.094 86.1408 289.754C86.383 289.414 86.508 288.904 86.5158 288.225V288.043C86.5158 287.316 86.3986 286.76 86.1643 286.373C85.9299 285.982 85.5021 285.787 84.8811 285.787C84.385 285.787 84.0061 285.988 83.7443 286.391C83.4865 286.789 83.3576 287.346 83.3576 288.061C83.3576 288.775 83.4865 289.322 83.7443 289.701C84.0061 290.076 84.3889 290.264 84.8928 290.264ZM92.3826 291.383C91.6092 291.383 90.9881 291.102 90.5193 290.539C90.0545 289.973 89.8221 289.139 89.8221 288.037C89.8221 286.924 90.0584 286.082 90.5311 285.512C91.0076 284.941 91.6346 284.656 92.4119 284.656C92.74 284.656 93.0271 284.701 93.2732 284.791C93.5193 284.877 93.7303 284.994 93.9061 285.143C94.0857 285.291 94.2381 285.457 94.3631 285.641H94.4275C94.408 285.52 94.3846 285.346 94.3572 285.119C94.3338 284.889 94.3221 284.676 94.3221 284.48V282.148H95.7049V291.266H94.6268L94.3807 290.381H94.3221C94.2049 290.568 94.0564 290.738 93.8768 290.891C93.701 291.039 93.49 291.158 93.2439 291.248C93.0018 291.338 92.7146 291.383 92.3826 291.383ZM92.7693 290.264C93.3592 290.264 93.7752 290.094 94.0174 289.754C94.2596 289.414 94.3846 288.904 94.3924 288.225V288.043C94.3924 287.316 94.2752 286.76 94.0408 286.373C93.8064 285.982 93.3787 285.787 92.7576 285.787C92.2615 285.787 91.8826 285.988 91.6209 286.391C91.3631 286.789 91.2342 287.346 91.2342 288.061C91.2342 288.775 91.3631 289.322 91.6209 289.701C91.8826 290.076 92.2654 290.264 92.7693 290.264ZM101.367 284.656C101.476 284.656 101.595 284.662 101.724 284.674C101.853 284.686 101.964 284.701 102.058 284.721L101.929 286.01C101.847 285.986 101.746 285.969 101.624 285.957C101.507 285.945 101.402 285.939 101.308 285.939C101.062 285.939 100.828 285.98 100.605 286.062C100.382 286.141 100.185 286.262 100.013 286.426C99.8412 286.586 99.7064 286.787 99.6088 287.029C99.5111 287.271 99.4623 287.553 99.4623 287.873V291.266H98.0795V284.779H99.1576L99.3451 285.922H99.4096C99.5385 285.691 99.6986 285.48 99.89 285.289C100.081 285.098 100.3 284.945 100.546 284.832C100.796 284.715 101.07 284.656 101.367 284.656ZM106.243 284.656C106.821 284.656 107.317 284.775 107.731 285.014C108.146 285.252 108.464 285.59 108.687 286.027C108.909 286.465 109.021 286.988 109.021 287.598V288.336H104.69C104.706 288.965 104.874 289.449 105.194 289.789C105.519 290.129 105.972 290.299 106.554 290.299C106.968 290.299 107.339 290.26 107.667 290.182C107.999 290.1 108.341 289.98 108.692 289.824V290.943C108.368 291.096 108.038 291.207 107.702 291.277C107.366 291.348 106.964 291.383 106.495 291.383C105.858 291.383 105.298 291.26 104.813 291.014C104.333 290.764 103.956 290.393 103.683 289.9C103.413 289.408 103.278 288.797 103.278 288.066C103.278 287.34 103.401 286.723 103.647 286.215C103.894 285.707 104.239 285.32 104.685 285.055C105.13 284.789 105.649 284.656 106.243 284.656ZM106.243 285.693C105.81 285.693 105.458 285.834 105.188 286.115C104.923 286.396 104.767 286.809 104.72 287.352H107.673C107.669 287.027 107.614 286.74 107.509 286.49C107.407 286.24 107.251 286.045 107.04 285.904C106.833 285.764 106.567 285.693 106.243 285.693ZM115.333 289.414C115.333 289.84 115.229 290.199 115.022 290.492C114.815 290.785 114.512 291.008 114.114 291.16C113.719 291.309 113.235 291.383 112.661 291.383C112.208 291.383 111.817 291.35 111.489 291.283C111.165 291.221 110.858 291.123 110.569 290.99V289.801C110.878 289.945 111.223 290.07 111.606 290.176C111.993 290.281 112.358 290.334 112.702 290.334C113.155 290.334 113.481 290.264 113.68 290.123C113.879 289.979 113.979 289.787 113.979 289.549C113.979 289.408 113.938 289.283 113.856 289.174C113.778 289.061 113.629 288.945 113.411 288.828C113.196 288.707 112.879 288.562 112.462 288.395C112.051 288.23 111.706 288.066 111.424 287.902C111.143 287.738 110.93 287.541 110.786 287.311C110.641 287.076 110.569 286.777 110.569 286.414C110.569 285.84 110.796 285.404 111.249 285.107C111.706 284.807 112.309 284.656 113.059 284.656C113.458 284.656 113.833 284.697 114.184 284.779C114.54 284.857 114.887 284.973 115.227 285.125L114.794 286.162C114.501 286.033 114.206 285.928 113.909 285.846C113.616 285.76 113.317 285.717 113.012 285.717C112.657 285.717 112.385 285.771 112.198 285.881C112.014 285.99 111.922 286.146 111.922 286.35C111.922 286.502 111.967 286.631 112.057 286.736C112.147 286.842 112.301 286.947 112.52 287.053C112.743 287.158 113.051 287.289 113.446 287.445C113.833 287.594 114.167 287.75 114.448 287.914C114.733 288.074 114.952 288.271 115.104 288.506C115.256 288.74 115.333 289.043 115.333 289.414ZM121.58 289.414C121.58 289.84 121.477 290.199 121.27 290.492C121.063 290.785 120.76 291.008 120.362 291.16C119.967 291.309 119.483 291.383 118.908 291.383C118.455 291.383 118.065 291.35 117.737 291.283C117.412 291.221 117.106 291.123 116.817 290.99V289.801C117.125 289.945 117.471 290.07 117.854 290.176C118.24 290.281 118.606 290.334 118.949 290.334C119.403 290.334 119.729 290.264 119.928 290.123C120.127 289.979 120.227 289.787 120.227 289.549C120.227 289.408 120.186 289.283 120.104 289.174C120.026 289.061 119.877 288.945 119.658 288.828C119.444 288.707 119.127 288.562 118.709 288.395C118.299 288.23 117.953 288.066 117.672 287.902C117.391 287.738 117.178 287.541 117.033 287.311C116.889 287.076 116.817 286.777 116.817 286.414C116.817 285.84 117.043 285.404 117.496 285.107C117.953 284.807 118.557 284.656 119.307 284.656C119.705 284.656 120.08 284.697 120.432 284.779C120.787 284.857 121.135 284.973 121.475 285.125L121.041 286.162C120.748 286.033 120.453 285.928 120.156 285.846C119.863 285.76 119.565 285.717 119.26 285.717C118.904 285.717 118.633 285.771 118.446 285.881C118.262 285.99 118.17 286.146 118.17 286.35C118.17 286.502 118.215 286.631 118.305 286.736C118.395 286.842 118.549 286.947 118.768 287.053C118.99 287.158 119.299 287.289 119.694 287.445C120.08 287.594 120.414 287.75 120.696 287.914C120.981 288.074 121.199 288.271 121.352 288.506C121.504 288.74 121.58 289.043 121.58 289.414Z" fill="#009FD9"/>
<path d="M125.675 286.266H328.358" stroke="#0092CB"/>
<path fill-rule="evenodd" clip-rule="evenodd" d="M24.5654 365.266C22.6324 365.266 21.0654 366.833 21.0654 368.766V415.261C21.0654 417.194 22.6324 418.761 24.5654 418.761H335.565C337.498 418.761 339.065 417.194 339.065 415.261V368.766C339.065 366.833 337.498 365.266 335.565 365.266H328.347V364.266H335.565C338.051 364.266 340.065 366.28 340.065 368.766V415.261C340.065 417.746 338.051 419.761 335.565 419.761H24.5654C22.0802 419.761 20.0654 417.746 20.0654 415.261V368.766C20.0654 366.28 22.0801 364.266 24.5654 364.266H32.7596V365.266H24.5654Z" fill="#1C1C3B" fill-opacity="0.2"/>
<path d="M41.1514 386.109L40.8545 389.211L43.9404 388.312L44.1436 389.68L41.1904 389.984L43.0967 392.523L41.8311 393.219L40.417 390.438L39.1201 393.219L37.8076 392.523L39.6982 389.984L36.7607 389.68L36.9795 388.312L40.0186 389.211L39.7139 386.109H41.1514ZM50.1139 386.109L49.817 389.211L52.9029 388.312L53.1061 389.68L50.1529 389.984L52.0592 392.523L50.7936 393.219L49.3795 390.438L48.0826 393.219L46.7701 392.523L48.6607 389.984L45.7232 389.68L45.942 388.312L48.9811 389.211L48.6764 386.109H50.1139ZM59.0764 386.109L58.7795 389.211L61.8654 388.312L62.0686 389.68L59.1154 389.984L61.0217 392.523L59.7561 393.219L58.342 390.438L57.0451 393.219L55.7326 392.523L57.6232 389.984L54.6857 389.68L54.9045 388.312L57.9436 389.211L57.6389 386.109H59.0764ZM68.0389 386.109L67.742 389.211L70.8279 388.312L71.0311 389.68L68.0779 389.984L69.9842 392.523L68.7186 393.219L67.3045 390.438L66.0076 393.219L64.6951 392.523L66.5857 389.984L63.6482 389.68L63.867 388.312L66.9061 389.211L66.6014 386.109H68.0389ZM77.0014 386.109L76.7045 389.211L79.7904 388.312L79.9936 389.68L77.0404 389.984L78.9467 392.523L77.6811 393.219L76.267 390.438L74.9701 393.219L73.6576 392.523L75.5482 389.984L72.6107 389.68L72.8295 388.312L75.8686 389.211L75.5639 386.109H77.0014ZM85.9639 386.109L85.667 389.211L88.7529 388.312L88.9561 389.68L86.0029 389.984L87.9092 392.523L86.6436 393.219L85.2295 390.438L83.9326 393.219L82.6201 392.523L84.5107 389.984L81.5732 389.68L81.792 388.312L84.8311 389.211L84.5264 386.109H85.9639ZM94.9264 386.109L94.6295 389.211L97.7154 388.312L97.9186 389.68L94.9654 389.984L96.8717 392.523L95.6061 393.219L94.192 390.438L92.8951 393.219L91.5826 392.523L93.4732 389.984L90.5357 389.68L90.7545 388.312L93.7936 389.211L93.4889 386.109H94.9264ZM103.889 386.109L103.592 389.211L106.678 388.312L106.881 389.68L103.928 389.984L105.834 392.523L104.569 393.219L103.154 390.438L101.858 393.219L100.545 392.523L102.436 389.984L99.4982 389.68L99.717 388.312L102.756 389.211L102.451 386.109H103.889Z" fill="#1C1C3B" fill-opacity="0.87"/>
<path d="M39.29 361.199C40.3955 361.199 41.2021 361.426 41.71 361.879C42.2178 362.332 42.4717 362.967 42.4717 363.783C42.4717 364.154 42.4131 364.508 42.2959 364.844C42.1826 365.176 41.9951 365.471 41.7334 365.729C41.4717 365.982 41.126 366.184 40.6963 366.332C40.2705 366.48 39.7451 366.555 39.1201 366.555H38.2061V369.766H36.7998V361.199H39.29ZM39.1963 362.365H38.2061V365.383H38.9736C39.415 365.383 39.79 365.332 40.0986 365.23C40.4072 365.125 40.6416 364.959 40.8018 364.732C40.9619 364.506 41.042 364.207 41.042 363.836C41.042 363.34 40.8916 362.971 40.5908 362.729C40.2939 362.486 39.8291 362.365 39.1963 362.365ZM46.985 363.156C47.8053 363.156 48.4244 363.338 48.8424 363.701C49.2643 364.064 49.4752 364.631 49.4752 365.4V369.766H48.4967L48.233 368.846H48.1861C48.0025 369.08 47.8131 369.273 47.6178 369.426C47.4225 369.578 47.1959 369.691 46.9381 369.766C46.6842 369.844 46.3736 369.883 46.0064 369.883C45.6197 369.883 45.274 369.812 44.9693 369.672C44.6646 369.527 44.4244 369.309 44.2486 369.016C44.0729 368.723 43.985 368.352 43.985 367.902C43.985 367.234 44.233 366.732 44.7291 366.396C45.2291 366.061 45.983 365.875 46.9908 365.84L48.1158 365.799V365.459C48.1158 365.01 48.0104 364.689 47.7994 364.498C47.5924 364.307 47.2994 364.211 46.9205 364.211C46.5963 364.211 46.2818 364.258 45.9771 364.352C45.6725 364.445 45.3756 364.561 45.0865 364.697L44.6412 363.725C44.9576 363.557 45.317 363.42 45.7193 363.314C46.1256 363.209 46.5475 363.156 46.985 363.156ZM48.11 366.666L47.2721 366.695C46.5846 366.719 46.1021 366.836 45.8248 367.047C45.5475 367.258 45.4088 367.547 45.4088 367.914C45.4088 368.234 45.5045 368.469 45.6959 368.617C45.8873 368.762 46.1393 368.834 46.4518 368.834C46.9283 368.834 47.3229 368.699 47.6354 368.43C47.9518 368.156 48.11 367.756 48.11 367.229V366.666ZM56.1623 367.914C56.1623 368.34 56.0588 368.699 55.8518 368.992C55.6447 369.285 55.342 369.508 54.9436 369.66C54.549 369.809 54.0646 369.883 53.4904 369.883C53.0373 369.883 52.6467 369.85 52.3186 369.783C51.9943 369.721 51.6877 369.623 51.3986 369.49V368.301C51.7072 368.445 52.0529 368.57 52.4357 368.676C52.8225 368.781 53.1877 368.834 53.5314 368.834C53.9846 368.834 54.3107 368.764 54.51 368.623C54.7092 368.479 54.8088 368.287 54.8088 368.049C54.8088 367.908 54.7678 367.783 54.6857 367.674C54.6076 367.561 54.4592 367.445 54.2404 367.328C54.0256 367.207 53.7092 367.062 53.2912 366.895C52.8811 366.73 52.5354 366.566 52.2541 366.402C51.9729 366.238 51.76 366.041 51.6154 365.811C51.4709 365.576 51.3986 365.277 51.3986 364.914C51.3986 364.34 51.6252 363.904 52.0783 363.607C52.5354 363.307 53.1389 363.156 53.8889 363.156C54.2873 363.156 54.6623 363.197 55.0139 363.279C55.3693 363.357 55.717 363.473 56.0568 363.625L55.6232 364.662C55.3303 364.533 55.0354 364.428 54.7385 364.346C54.4455 364.26 54.1467 364.217 53.842 364.217C53.4865 364.217 53.215 364.271 53.0275 364.381C52.8439 364.49 52.7521 364.646 52.7521 364.85C52.7521 365.002 52.7971 365.131 52.8869 365.236C52.9768 365.342 53.1311 365.447 53.3498 365.553C53.5725 365.658 53.8811 365.789 54.2756 365.945C54.6623 366.094 54.9963 366.25 55.2775 366.414C55.5627 366.574 55.7814 366.771 55.9338 367.006C56.0861 367.24 56.1623 367.543 56.1623 367.914ZM62.41 367.914C62.41 368.34 62.3064 368.699 62.0994 368.992C61.8924 369.285 61.5896 369.508 61.1912 369.66C60.7967 369.809 60.3123 369.883 59.7381 369.883C59.285 369.883 58.8943 369.85 58.5662 369.783C58.242 369.721 57.9354 369.623 57.6463 369.49V368.301C57.9549 368.445 58.3006 368.57 58.6834 368.676C59.0701 368.781 59.4354 368.834 59.7791 368.834C60.2322 368.834 60.5584 368.764 60.7576 368.623C60.9568 368.479 61.0564 368.287 61.0564 368.049C61.0564 367.908 61.0154 367.783 60.9334 367.674C60.8553 367.561 60.7068 367.445 60.4881 367.328C60.2732 367.207 59.9568 367.062 59.5389 366.895C59.1287 366.73 58.783 366.566 58.5018 366.402C58.2205 366.238 58.0076 366.041 57.8631 365.811C57.7186 365.576 57.6463 365.277 57.6463 364.914C57.6463 364.34 57.8729 363.904 58.326 363.607C58.783 363.307 59.3865 363.156 60.1365 363.156C60.535 363.156 60.91 363.197 61.2615 363.279C61.617 363.357 61.9646 363.473 62.3045 363.625L61.8709 364.662C61.5779 364.533 61.283 364.428 60.9861 364.346C60.6932 364.26 60.3943 364.217 60.0896 364.217C59.7342 364.217 59.4627 364.271 59.2752 364.381C59.0916 364.49 58.9998 364.646 58.9998 364.85C58.9998 365.002 59.0447 365.131 59.1346 365.236C59.2244 365.342 59.3787 365.447 59.5975 365.553C59.8201 365.658 60.1287 365.789 60.5232 365.945C60.91 366.094 61.2439 366.25 61.5252 366.414C61.8104 366.574 62.0291 366.771 62.1814 367.006C62.3338 367.24 62.41 367.543 62.41 367.914ZM69.601 369.76L68.7807 366.742C68.7416 366.594 68.6947 366.414 68.64 366.203C68.5854 365.992 68.5307 365.775 68.476 365.553C68.4213 365.326 68.3705 365.117 68.3236 364.926C68.2807 364.734 68.2475 364.586 68.224 364.48H68.1771C68.1576 364.586 68.1264 364.734 68.0834 364.926C68.0404 365.117 67.9916 365.326 67.9369 365.553C67.8822 365.779 67.8275 366 67.7729 366.215C67.7221 366.43 67.6752 366.613 67.6322 366.766L66.7709 369.76H65.2592L63.4428 363.273H64.8373L65.6811 366.496C65.7357 366.715 65.7885 366.951 65.8393 367.205C65.8939 367.459 65.9408 367.701 65.9799 367.932C66.0189 368.162 66.0482 368.352 66.0678 368.5H66.1146C66.1303 368.395 66.1518 368.262 66.1791 368.102C66.2064 367.938 66.2377 367.768 66.2729 367.592C66.308 367.412 66.3432 367.244 66.3783 367.088C66.4135 366.928 66.4467 366.799 66.4779 366.701L67.474 363.273H68.9799L69.935 366.701C69.9779 366.85 70.0248 367.037 70.0756 367.264C70.1264 367.486 70.1713 367.711 70.2104 367.938C70.2533 368.16 70.2807 368.346 70.2924 368.494H70.3393C70.3549 368.361 70.3822 368.182 70.4213 367.955C70.4643 367.725 70.5131 367.48 70.5678 367.223C70.6225 366.961 70.6791 366.719 70.7377 366.496L71.599 363.273H72.9701L71.142 369.76H69.601ZM80.2256 366.508C80.2256 367.047 80.1553 367.525 80.0146 367.943C79.874 368.361 79.6689 368.715 79.3994 369.004C79.1299 369.289 78.8057 369.508 78.4268 369.66C78.0479 369.809 77.6201 369.883 77.1436 369.883C76.6982 369.883 76.29 369.809 75.9189 369.66C75.5479 369.508 75.2256 369.289 74.9521 369.004C74.6826 368.715 74.4736 368.361 74.3252 367.943C74.1768 367.525 74.1025 367.047 74.1025 366.508C74.1025 365.793 74.2256 365.188 74.4717 364.691C74.7217 364.191 75.0771 363.811 75.5381 363.549C75.999 363.287 76.5479 363.156 77.1846 363.156C77.7822 363.156 78.3096 363.287 78.7666 363.549C79.2236 363.811 79.5811 364.191 79.8389 364.691C80.0967 365.191 80.2256 365.797 80.2256 366.508ZM75.5205 366.508C75.5205 366.98 75.5771 367.385 75.6904 367.721C75.8076 368.057 75.9873 368.314 76.2295 368.494C76.4717 368.67 76.7842 368.758 77.167 368.758C77.5498 368.758 77.8623 368.67 78.1045 368.494C78.3467 368.314 78.5244 368.057 78.6377 367.721C78.751 367.385 78.8076 366.98 78.8076 366.508C78.8076 366.035 78.751 365.635 78.6377 365.307C78.5244 364.975 78.3467 364.723 78.1045 364.551C77.8623 364.375 77.5479 364.287 77.1611 364.287C76.5908 364.287 76.1748 364.479 75.9131 364.861C75.6514 365.244 75.5205 365.793 75.5205 366.508ZM85.4947 363.156C85.6041 363.156 85.7232 363.162 85.8521 363.174C85.9811 363.186 86.0924 363.201 86.1861 363.221L86.0572 364.51C85.9752 364.486 85.8736 364.469 85.7525 364.457C85.6354 364.445 85.5299 364.439 85.4361 364.439C85.19 364.439 84.9557 364.48 84.733 364.562C84.5104 364.641 84.3131 364.762 84.1412 364.926C83.9693 365.086 83.8346 365.287 83.7369 365.529C83.6393 365.771 83.5904 366.053 83.5904 366.373V369.766H82.2076V363.279H83.2857L83.4732 364.422H83.5377C83.6666 364.191 83.8268 363.98 84.0182 363.789C84.2096 363.598 84.4283 363.445 84.6744 363.332C84.9244 363.215 85.1979 363.156 85.4947 363.156ZM89.967 369.883C89.1936 369.883 88.5725 369.602 88.1037 369.039C87.6389 368.473 87.4064 367.639 87.4064 366.537C87.4064 365.424 87.6428 364.582 88.1154 364.012C88.592 363.441 89.2189 363.156 89.9963 363.156C90.3244 363.156 90.6115 363.201 90.8576 363.291C91.1037 363.377 91.3146 363.494 91.4904 363.643C91.6701 363.791 91.8225 363.957 91.9475 364.141H92.0119C91.9924 364.02 91.9689 363.846 91.9416 363.619C91.9182 363.389 91.9064 363.176 91.9064 362.98V360.648H93.2893V369.766H92.2111L91.965 368.881H91.9064C91.7893 369.068 91.6408 369.238 91.4611 369.391C91.2854 369.539 91.0744 369.658 90.8283 369.748C90.5861 369.838 90.299 369.883 89.967 369.883ZM90.3537 368.764C90.9436 368.764 91.3596 368.594 91.6018 368.254C91.8439 367.914 91.9689 367.404 91.9768 366.725V366.543C91.9768 365.816 91.8596 365.26 91.6252 364.873C91.3908 364.482 90.9631 364.287 90.342 364.287C89.8459 364.287 89.467 364.488 89.2053 364.891C88.9475 365.289 88.8186 365.846 88.8186 366.561C88.8186 367.275 88.9475 367.822 89.2053 368.201C89.467 368.576 89.8498 368.764 90.3537 368.764Z" fill="#1C1C3B" fill-opacity="0.6"/>
<path d="M97.6748 364.766H328.358" stroke="#1C1C3B" stroke-opacity="0.2"/>
<rect x="20.0654" y="436.266" width="320" height="52" rx="4" fill="#009FD9"/>
<path d="M159.573 468.266V456.844H161.44V466.664H166.276V468.266H159.573ZM176.214 463.93C176.214 465.341 175.852 466.443 175.128 467.234C174.404 468.026 173.396 468.422 172.104 468.422C171.297 468.422 170.584 468.24 169.964 467.875C169.344 467.51 168.868 466.987 168.534 466.305C168.201 465.622 168.034 464.831 168.034 463.93C168.034 462.529 168.394 461.435 169.112 460.648C169.831 459.862 170.844 459.469 172.151 459.469C173.401 459.469 174.391 459.872 175.12 460.68C175.849 461.482 176.214 462.565 176.214 463.93ZM169.925 463.93C169.925 465.924 170.662 466.922 172.136 466.922C173.594 466.922 174.323 465.924 174.323 463.93C174.323 461.956 173.589 460.969 172.12 460.969C171.349 460.969 170.789 461.224 170.44 461.734C170.097 462.245 169.925 462.977 169.925 463.93ZM186.128 459.625V460.633L184.651 460.906C184.787 461.089 184.899 461.312 184.987 461.578C185.076 461.844 185.12 462.125 185.12 462.422C185.12 463.312 184.813 464.013 184.198 464.523C183.584 465.034 182.737 465.289 181.659 465.289C181.383 465.289 181.133 465.268 180.909 465.227C180.513 465.471 180.315 465.758 180.315 466.086C180.315 466.284 180.407 466.432 180.589 466.531C180.776 466.63 181.118 466.68 181.612 466.68H183.12C184.073 466.68 184.797 466.883 185.292 467.289C185.787 467.695 186.034 468.281 186.034 469.047C186.034 470.026 185.631 470.781 184.823 471.312C184.016 471.844 182.849 472.109 181.323 472.109C180.146 472.109 179.248 471.901 178.628 471.484C178.008 471.068 177.698 470.474 177.698 469.703C177.698 469.172 177.865 468.724 178.198 468.359C178.537 468 179.008 467.75 179.612 467.609C179.368 467.505 179.164 467.339 179.003 467.109C178.847 466.875 178.769 466.63 178.769 466.375C178.769 466.052 178.86 465.779 179.042 465.555C179.224 465.331 179.495 465.109 179.854 464.891C179.407 464.698 179.042 464.385 178.761 463.953C178.485 463.516 178.347 463.005 178.347 462.422C178.347 461.484 178.641 460.758 179.229 460.242C179.823 459.727 180.667 459.469 181.761 459.469C182.006 459.469 182.261 459.487 182.526 459.523C182.797 459.555 183 459.589 183.136 459.625H186.128ZM179.339 469.609C179.339 470.005 179.516 470.31 179.87 470.523C180.229 470.737 180.732 470.844 181.378 470.844C182.378 470.844 183.123 470.701 183.612 470.414C184.102 470.128 184.347 469.747 184.347 469.273C184.347 468.898 184.211 468.63 183.94 468.469C183.675 468.312 183.177 468.234 182.448 468.234H181.058C180.532 468.234 180.112 468.357 179.8 468.602C179.493 468.852 179.339 469.188 179.339 469.609ZM180.128 462.422C180.128 462.964 180.266 463.38 180.542 463.672C180.823 463.964 181.224 464.109 181.745 464.109C182.808 464.109 183.339 463.542 183.339 462.406C183.339 461.844 183.206 461.411 182.94 461.109C182.68 460.802 182.282 460.648 181.745 460.648C181.214 460.648 180.81 460.799 180.534 461.102C180.263 461.404 180.128 461.844 180.128 462.422ZM190.073 468.266H188.237V459.625H190.073V468.266ZM188.128 457.336C188.128 457.008 188.216 456.755 188.394 456.578C188.576 456.401 188.834 456.312 189.167 456.312C189.49 456.312 189.74 456.401 189.917 456.578C190.099 456.755 190.19 457.008 190.19 457.336C190.19 457.648 190.099 457.896 189.917 458.078C189.74 458.255 189.49 458.344 189.167 458.344C188.834 458.344 188.576 458.255 188.394 458.078C188.216 457.896 188.128 457.648 188.128 457.336ZM200.808 468.266H198.964V462.953C198.964 462.286 198.828 461.789 198.558 461.461C198.292 461.133 197.868 460.969 197.284 460.969C196.508 460.969 195.94 461.198 195.581 461.656C195.222 462.115 195.042 462.883 195.042 463.961V468.266H193.206V459.625H194.644L194.901 460.758H194.995C195.256 460.346 195.625 460.029 196.104 459.805C196.584 459.581 197.115 459.469 197.698 459.469C199.771 459.469 200.808 460.523 200.808 462.633V468.266Z" fill="white"/>
<g clip-path="url(#clip1_1344_7207)">
<path opacity="0.9" fill-rule="evenodd" clip-rule="evenodd" d="M199.882 106.589C197.129 111.304 196.024 113.696 194.501 113.693C192.525 113.689 191.828 112.188 191.673 101.967C191.602 97.2413 189.957 94.5058 186.602 95.7733C184.085 96.7233 182.085 101.9 180.867 104.527C177.214 112.409 176.219 108.276 173.948 104.198C163.523 85.4801 154.8 92.8765 157.187 92.6789C159.851 92.458 166.496 96.0626 171.424 111.568C174.625 119.53 179.238 119.894 183.471 113.127C185.076 110.564 188.822 103.254 188.77 107.401C188.718 111.547 189.312 118.762 193.424 119.318C196.53 119.736 198.237 116.921 200.628 110.004C201.295 108.073 201.782 106.756 203.29 104.665C203.622 104.202 202.292 102.464 199.882 106.589Z" fill="#009FD9"/>
<path opacity="0.9" fill-rule="evenodd" clip-rule="evenodd" d="M199.882 106.589C197.129 111.304 196.024 113.696 194.501 113.693C192.525 113.689 191.828 112.188 191.673 101.967C191.602 97.2413 189.957 94.5058 186.602 95.7733C184.085 96.7233 182.085 101.9 180.867 104.527C177.214 112.409 176.219 108.276 173.948 104.198C163.523 85.4801 154.8 92.8765 157.187 92.6789C159.851 92.458 166.496 96.0626 171.424 111.568C174.625 119.53 179.238 119.894 183.471 113.127C185.076 110.564 188.822 103.254 188.77 107.401C188.718 111.547 189.312 118.762 193.424 119.318C196.53 119.736 198.237 116.921 200.628 110.004C201.295 108.073 201.782 106.756 203.29 104.665C203.622 104.202 202.292 102.464 199.882 106.589Z" fill="#009FD9"/>
<path d="M183.574 121.898C183.574 122.345 183.439 122.782 183.186 123.154C182.933 123.525 182.573 123.815 182.152 123.986C181.732 124.157 181.269 124.202 180.822 124.115C180.375 124.027 179.965 123.812 179.643 123.496C179.321 123.18 179.102 122.777 179.013 122.339C178.924 121.901 178.97 121.446 179.144 121.034C179.318 120.621 179.613 120.268 179.992 120.019C180.371 119.771 180.816 119.639 181.271 119.639C181.882 119.639 182.467 119.877 182.899 120.3C183.331 120.724 183.574 121.299 183.574 121.898Z" fill="#009FD9"/>
<path d="M191.315 121.898C191.315 122.345 191.18 122.782 190.927 123.154C190.674 123.525 190.314 123.815 189.893 123.986C189.473 124.157 189.01 124.202 188.563 124.115C188.117 124.027 187.706 123.812 187.384 123.496C187.062 123.18 186.843 122.777 186.754 122.339C186.665 121.901 186.711 121.446 186.885 121.034C187.059 120.621 187.355 120.268 187.733 120.019C188.112 119.771 188.557 119.639 189.012 119.639C189.623 119.639 190.209 119.877 190.64 120.3C191.072 120.724 191.315 121.299 191.315 121.898Z" fill="#009FD9"/>
</g>
</g>
<defs>
<filter id="filter0_f_1344_7207" x="-222.274" y="552.988" width="1003.51" height="887.439" filterUnits="userSpaceOnUse" color-interpolation-filters="sRGB">
<feFlood flood-opacity="0" result="BackgroundImageFix"/>
<feBlend mode="normal" in="SourceGraphic" in2="BackgroundImageFix" result="shape"/>
<feGaussianBlur stdDeviation="110" result="effect1_foregroundBlur_1344_7207"/>
</filter>
<linearGradient id="paint0_linear_1344_7207" x1="41.8032" y1="982.675" x2="525.126" y2="988.87" gradientUnits="userSpaceOnUse">
<stop stop-color="#FB2D90"/>
<stop offset="0.276042" stop-color="#43FD3F"/>
<stop offset="0.552083" stop-color="#75F7FF"/>
<stop offset="0.78125" stop-color="#DA71FF"/>
<stop offset="1" stop-color="#084DD3"/>
</linearGradient>
<clipPath id="clip0_1344_7207">
<rect width="360" height="800" fill="white" transform="translate(0.0654297 0.849609)"/>
</clipPath>
<clipPath id="clip1_1344_7207">
<rect width="46.5503" height="32.7576" fill="white" transform="translate(156.79 91.4004)"/>
</clipPath>
</defs>
</svg>
